M48
; DRILL file {KiCad 9.0.2} date 2025-08-14T15:25:16-0500
; FORMAT={-:-/ absolute / metric / decimal}
; #@! TF.CreationDate,2025-08-14T15:25:16-05:00
; #@! TF.GenerationSoftware,Kicad,Pcbnew,9.0.2
; #@! TF.FileFunction,MixedPlating,1,4
FMAT,2
METRIC
; #@! TA.AperFunction,Plated,PTH,ViaDrill
T1C0.300
; #@! TA.AperFunction,Plated,PTH,ComponentDrill
T2C0.600
; #@! TA.AperFunction,Plated,PTH,ComponentDrill
T3C0.870
; #@! TA.AperFunction,Plated,PTH,ComponentDrill
T4C1.100
; #@! TA.AperFunction,NonPlated,NPTH,ComponentDrill
T5C0.650
; #@! TA.AperFunction,NonPlated,NPTH,ComponentDrill
T6C3.200
%
G90
G05
T1
X102.14Y-107.55
X105.25Y-115.59
X105.79Y-102.99
X110.11Y-108.93
X110.23Y-101.82
X111.89Y-111.46
X112.21Y-101.62
X112.31Y-87.59
X112.82Y-108.57
X113.53Y-102.33
X115.39Y-107.33
X115.44Y-105.75
X115.46Y-95.48
X116.44Y-92.13
X117.16Y-113.05
X117.33Y-121.36
X118.83Y-108.87
X119.85Y-121.36
X119.93Y-94.41
X120.9Y-114.95
X121.54Y-87.82
X121.88Y-95.66
X122.03Y-92.33
X122.28Y-98.46
X124.14Y-104.7
X124.27Y-87.11
X124.705Y-85.615
X126.17Y-87.75
X126.76Y-86.67
X129.13Y-120.92
X132.02Y-89.32
X132.86Y-85.45
X133.57Y-115.3
X133.81Y-90.17
X134.41Y-112.34
X135.8Y-97.1
X135.8Y-98.3
X136.5Y-96.5
X136.5Y-97.1
X136.5Y-97.7
X136.5Y-98.3
X136.5Y-98.9
X136.87Y-83.3
X137.3Y-97.1
X137.3Y-98.3
X138.1Y-96.5
X138.1Y-97.1
X138.1Y-97.7
X138.1Y-98.3
X138.1Y-99.0
X138.8Y-97.1
X138.8Y-98.3
X141.18Y-107.75
X141.69Y-83.92
X143.29Y-112.975
X148.32Y-96.51
X149.14Y-101.69
X150.68Y-99.9
X153.95Y-96.76
X154.14Y-104.17
X154.21Y-99.43
X157.14Y-91.48
X157.22Y-101.58
X157.49Y-98.24
X163.61Y-95.05
X168.1Y-91.98
X171.92Y-98.02
T3
X144.16Y-84.15
X145.66Y-84.15
X147.16Y-84.15
X148.66Y-84.15
T4
X114.15Y-79.25
X114.15Y-85.75
X118.65Y-79.25
X118.65Y-85.75
T5
X136.36Y-117.535
X142.14Y-117.535
T6
X100.1Y-76.1
X101.2Y-122.1
X172.1Y-122.3
X172.5Y-76.2
T2
G00X134.93Y-116.465
M15
G01X134.93Y-117.565
M16
G05
G00X134.93Y-120.815
M15
G01X134.93Y-121.615
M16
G05
G00X143.57Y-116.465
M15
G01X143.57Y-117.565
M16
G05
G00X143.57Y-120.815
M15
G01X143.57Y-121.615
M16
G05
M30
