%TF.GenerationSoftware,KiCad,Pcbnew,9.0.2*%
%TF.CreationDate,2025-08-14T15:26:00-05:00*%
%TF.ProjectId,ESP_32_sens,4553505f-3332-45f7-9365-6e732e6b6963,rev?*%
%TF.SameCoordinates,Original*%
%TF.FileFunction,Copper,L1,Top*%
%TF.FilePolarity,Positive*%
%FSLAX46Y46*%
G04 Gerber Fmt 4.6, Leading zero omitted, Abs format (unit mm)*
G04 Created by KiCad (PCBNEW 9.0.2) date 2025-08-14 15:26:00*
%MOMM*%
%LPD*%
G01*
G04 APERTURE LIST*
G04 Aperture macros list*
%AMRoundRect*
0 Rectangle with rounded corners*
0 $1 Rounding radius*
0 $2 $3 $4 $5 $6 $7 $8 $9 X,Y pos of 4 corners*
0 Add a 4 corners polygon primitive as box body*
4,1,4,$2,$3,$4,$5,$6,$7,$8,$9,$2,$3,0*
0 Add four circle primitives for the rounded corners*
1,1,$1+$1,$2,$3*
1,1,$1+$1,$4,$5*
1,1,$1+$1,$6,$7*
1,1,$1+$1,$8,$9*
0 Add four rect primitives between the rounded corners*
20,1,$1+$1,$2,$3,$4,$5,0*
20,1,$1+$1,$4,$5,$6,$7,0*
20,1,$1+$1,$6,$7,$8,$9,0*
20,1,$1+$1,$8,$9,$2,$3,0*%
G04 Aperture macros list end*
%TA.AperFunction,SMDPad,CuDef*%
%ADD10RoundRect,0.160000X0.197500X0.160000X-0.197500X0.160000X-0.197500X-0.160000X0.197500X-0.160000X0*%
%TD*%
%TA.AperFunction,HeatsinkPad*%
%ADD11O,1.000000X1.800000*%
%TD*%
%TA.AperFunction,HeatsinkPad*%
%ADD12O,1.000000X2.100000*%
%TD*%
%TA.AperFunction,SMDPad,CuDef*%
%ADD13R,0.600000X1.240000*%
%TD*%
%TA.AperFunction,SMDPad,CuDef*%
%ADD14R,0.300000X1.240000*%
%TD*%
%TA.AperFunction,SMDPad,CuDef*%
%ADD15RoundRect,0.160000X-0.197500X-0.160000X0.197500X-0.160000X0.197500X0.160000X-0.197500X0.160000X0*%
%TD*%
%TA.AperFunction,SMDPad,CuDef*%
%ADD16RoundRect,0.155000X-0.212500X-0.155000X0.212500X-0.155000X0.212500X0.155000X-0.212500X0.155000X0*%
%TD*%
%TA.AperFunction,SMDPad,CuDef*%
%ADD17RoundRect,0.160000X0.160000X-0.197500X0.160000X0.197500X-0.160000X0.197500X-0.160000X-0.197500X0*%
%TD*%
%TA.AperFunction,SMDPad,CuDef*%
%ADD18RoundRect,0.160000X-0.160000X0.197500X-0.160000X-0.197500X0.160000X-0.197500X0.160000X0.197500X0*%
%TD*%
%TA.AperFunction,SMDPad,CuDef*%
%ADD19RoundRect,0.160000X-0.160000X0.222500X-0.160000X-0.222500X0.160000X-0.222500X0.160000X0.222500X0*%
%TD*%
%TA.AperFunction,SMDPad,CuDef*%
%ADD20RoundRect,0.162500X0.650000X0.162500X-0.650000X0.162500X-0.650000X-0.162500X0.650000X-0.162500X0*%
%TD*%
%TA.AperFunction,SMDPad,CuDef*%
%ADD21RoundRect,0.155000X-0.155000X0.212500X-0.155000X-0.212500X0.155000X-0.212500X0.155000X0.212500X0*%
%TD*%
%TA.AperFunction,SMDPad,CuDef*%
%ADD22RoundRect,0.150000X0.512500X0.150000X-0.512500X0.150000X-0.512500X-0.150000X0.512500X-0.150000X0*%
%TD*%
%TA.AperFunction,SMDPad,CuDef*%
%ADD23RoundRect,0.155000X0.212500X0.155000X-0.212500X0.155000X-0.212500X-0.155000X0.212500X-0.155000X0*%
%TD*%
%TA.AperFunction,SMDPad,CuDef*%
%ADD24RoundRect,0.237500X-0.300000X-0.237500X0.300000X-0.237500X0.300000X0.237500X-0.300000X0.237500X0*%
%TD*%
%TA.AperFunction,SMDPad,CuDef*%
%ADD25RoundRect,0.160000X0.160000X-0.222500X0.160000X0.222500X-0.160000X0.222500X-0.160000X-0.222500X0*%
%TD*%
%TA.AperFunction,ComponentPad*%
%ADD26C,2.000000*%
%TD*%
%TA.AperFunction,SMDPad,CuDef*%
%ADD27RoundRect,0.160000X-0.222500X-0.160000X0.222500X-0.160000X0.222500X0.160000X-0.222500X0.160000X0*%
%TD*%
%TA.AperFunction,SMDPad,CuDef*%
%ADD28RoundRect,0.050000X-0.350000X-0.050000X0.350000X-0.050000X0.350000X0.050000X-0.350000X0.050000X0*%
%TD*%
%TA.AperFunction,SMDPad,CuDef*%
%ADD29RoundRect,0.050000X-0.050000X-0.350000X0.050000X-0.350000X0.050000X0.350000X-0.050000X0.350000X0*%
%TD*%
%TA.AperFunction,HeatsinkPad*%
%ADD30R,4.000000X4.000000*%
%TD*%
%TA.AperFunction,SMDPad,CuDef*%
%ADD31RoundRect,0.375000X0.625000X0.375000X-0.625000X0.375000X-0.625000X-0.375000X0.625000X-0.375000X0*%
%TD*%
%TA.AperFunction,SMDPad,CuDef*%
%ADD32RoundRect,0.500000X0.500000X1.400000X-0.500000X1.400000X-0.500000X-1.400000X0.500000X-1.400000X0*%
%TD*%
%TA.AperFunction,SMDPad,CuDef*%
%ADD33RoundRect,0.155000X0.155000X-0.212500X0.155000X0.212500X-0.155000X0.212500X-0.155000X-0.212500X0*%
%TD*%
%TA.AperFunction,SMDPad,CuDef*%
%ADD34RoundRect,0.237500X-0.237500X0.300000X-0.237500X-0.300000X0.237500X-0.300000X0.237500X0.300000X0*%
%TD*%
%TA.AperFunction,SMDPad,CuDef*%
%ADD35RoundRect,0.237500X0.237500X-0.300000X0.237500X0.300000X-0.237500X0.300000X-0.237500X-0.300000X0*%
%TD*%
%TA.AperFunction,SMDPad,CuDef*%
%ADD36R,0.254000X0.482600*%
%TD*%
%TA.AperFunction,SMDPad,CuDef*%
%ADD37R,0.482600X0.254000*%
%TD*%
%TA.AperFunction,ComponentPad*%
%ADD38RoundRect,0.250000X0.335000X0.685000X-0.335000X0.685000X-0.335000X-0.685000X0.335000X-0.685000X0*%
%TD*%
%TA.AperFunction,ComponentPad*%
%ADD39O,1.170000X1.870000*%
%TD*%
%TA.AperFunction,SMDPad,CuDef*%
%ADD40RoundRect,0.237500X0.300000X0.237500X-0.300000X0.237500X-0.300000X-0.237500X0.300000X-0.237500X0*%
%TD*%
%TA.AperFunction,SMDPad,CuDef*%
%ADD41RoundRect,0.237500X-0.287500X-0.237500X0.287500X-0.237500X0.287500X0.237500X-0.287500X0.237500X0*%
%TD*%
%TA.AperFunction,SMDPad,CuDef*%
%ADD42RoundRect,0.150000X0.825000X0.150000X-0.825000X0.150000X-0.825000X-0.150000X0.825000X-0.150000X0*%
%TD*%
%TA.AperFunction,SMDPad,CuDef*%
%ADD43RoundRect,0.102000X-0.373000X-0.323000X0.373000X-0.323000X0.373000X0.323000X-0.373000X0.323000X0*%
%TD*%
%TA.AperFunction,SMDPad,CuDef*%
%ADD44RoundRect,0.150000X0.150000X-0.512500X0.150000X0.512500X-0.150000X0.512500X-0.150000X-0.512500X0*%
%TD*%
%TA.AperFunction,ViaPad*%
%ADD45C,0.600000*%
%TD*%
%TA.AperFunction,Conductor*%
%ADD46C,0.100000*%
%TD*%
%TA.AperFunction,Conductor*%
%ADD47C,0.350000*%
%TD*%
%TA.AperFunction,Conductor*%
%ADD48C,0.500000*%
%TD*%
%TA.AperFunction,Conductor*%
%ADD49C,0.250000*%
%TD*%
%TA.AperFunction,Conductor*%
%ADD50C,0.200000*%
%TD*%
%TA.AperFunction,Conductor*%
%ADD51C,0.300000*%
%TD*%
%TA.AperFunction,Conductor*%
%ADD52C,0.153000*%
%TD*%
G04 APERTURE END LIST*
D10*
%TO.P,R11,1*%
%TO.N,/PSU/CC_1_pulldown*%
X136647500Y-113040000D03*
%TO.P,R11,2*%
%TO.N,GND*%
X135452500Y-113040000D03*
%TD*%
D11*
%TO.P,J3,S1,SHIELD*%
%TO.N,unconnected-(J3-SHIELD-PadS1)_3*%
X143570000Y-121215000D03*
D12*
%TO.N,unconnected-(J3-SHIELD-PadS1)_1*%
X143570000Y-117015000D03*
D11*
%TO.N,unconnected-(J3-SHIELD-PadS1)_2*%
X134930000Y-121215000D03*
D12*
%TO.N,unconnected-(J3-SHIELD-PadS1)*%
X134930000Y-117015000D03*
D13*
%TO.P,J3,B12,GND*%
%TO.N,GND*%
X136050000Y-116415000D03*
%TO.P,J3,B9,VBUS*%
%TO.N,VBUS*%
X136850000Y-116415000D03*
D14*
%TO.P,J3,B8,SBU2*%
%TO.N,unconnected-(J3-SBU2-PadB8)*%
X137500000Y-116415000D03*
%TO.P,J3,B7,D-*%
%TO.N,/PSU/usbc_d-*%
X138500000Y-116415000D03*
%TO.P,J3,B6,D+*%
%TO.N,/PSU/usbc_d+*%
X140000000Y-116415000D03*
%TO.P,J3,B5,CC2*%
%TO.N,/PSU/CC_2_pulldown*%
X141000000Y-116415000D03*
D13*
%TO.P,J3,B4,VBUS*%
%TO.N,VBUS*%
X141650000Y-116415000D03*
%TO.P,J3,B1,GND*%
%TO.N,GND*%
X142450000Y-116415000D03*
%TO.P,J3,A12,GND*%
X142450000Y-116415000D03*
%TO.P,J3,A9,VBUS*%
%TO.N,VBUS*%
X141650000Y-116415000D03*
D14*
%TO.P,J3,A8,SBU1*%
%TO.N,unconnected-(J3-SBU1-PadA8)*%
X140500000Y-116415000D03*
%TO.P,J3,A7,D-*%
%TO.N,/PSU/usbc_d-*%
X139500000Y-116415000D03*
%TO.P,J3,A6,D+*%
%TO.N,/PSU/usbc_d+*%
X139000000Y-116415000D03*
%TO.P,J3,A5,CC1*%
%TO.N,/PSU/CC_1_pulldown*%
X138000000Y-116415000D03*
D13*
%TO.P,J3,A4,VBUS*%
%TO.N,VBUS*%
X136850000Y-116415000D03*
%TO.P,J3,A1,GND*%
%TO.N,GND*%
X136050000Y-116415000D03*
%TD*%
D15*
%TO.P,R10,2*%
%TO.N,GND*%
X142647500Y-114240000D03*
%TO.P,R10,1*%
%TO.N,/PSU/CC_2_pulldown*%
X141452500Y-114240000D03*
%TD*%
D16*
%TO.P,C25,2*%
%TO.N,VBUS*%
X136917500Y-114565000D03*
%TO.P,C25,1*%
%TO.N,GND*%
X135782500Y-114565000D03*
%TD*%
D17*
%TO.P,R15,1*%
%TO.N,+3.3V*%
X120000000Y-98897500D03*
%TO.P,R15,2*%
%TO.N,I2C_SCL*%
X120000000Y-97702500D03*
%TD*%
D18*
%TO.P,R12,1*%
%TO.N,+3.3V*%
X119900000Y-106002500D03*
%TO.P,R12,2*%
%TO.N,/PSU/BUCK_FB*%
X119900000Y-107197500D03*
%TD*%
D19*
%TO.P,L2,1,1*%
%TO.N,Net-(C12-Pad1)*%
X135320000Y-90047500D03*
%TO.P,L2,2,2*%
%TO.N,/MCU/XTAL_P*%
X135320000Y-91192500D03*
%TD*%
D20*
%TO.P,U2,1,~{CS}*%
%TO.N,SPICS0*%
X165987500Y-96305000D03*
%TO.P,U2,2,DO/IO_{1}*%
%TO.N,SPIQ*%
X165987500Y-95035000D03*
%TO.P,U2,3,~{WP}/IO_{2}*%
%TO.N,SPIWP*%
X165987500Y-93765000D03*
%TO.P,U2,4,GND*%
%TO.N,GND*%
X165987500Y-92495000D03*
%TO.P,U2,5,DI/IO_{0}*%
%TO.N,SPID*%
X158812500Y-92495000D03*
%TO.P,U2,6,CLK*%
%TO.N,SPICLK*%
X158812500Y-93765000D03*
%TO.P,U2,7,~{HOLD}/~{RESET}/IO_{3}*%
%TO.N,SPIHD*%
X158812500Y-95035000D03*
%TO.P,U2,8,VCC*%
%TO.N,VDD_SPI*%
X158812500Y-96305000D03*
%TD*%
D15*
%TO.P,R7,1*%
%TO.N,GND*%
X117502500Y-91100000D03*
%TO.P,R7,2*%
%TO.N,Net-(U1-GPIO0)*%
X118697500Y-91100000D03*
%TD*%
D21*
%TO.P,C8,1*%
%TO.N,VDD_SPI*%
X142030000Y-100882500D03*
%TO.P,C8,2*%
%TO.N,GND*%
X142030000Y-102017500D03*
%TD*%
D22*
%TO.P,U7,1,EN*%
%TO.N,+5V*%
X113837500Y-106250000D03*
%TO.P,U7,2,GND*%
%TO.N,GND*%
X113837500Y-105300000D03*
%TO.P,U7,3,SW*%
%TO.N,/PSU/BUCK_SW*%
X113837500Y-104350000D03*
%TO.P,U7,4,VIN*%
%TO.N,+5V*%
X111562500Y-104350000D03*
%TO.P,U7,5,FB*%
%TO.N,/PSU/BUCK_FB*%
X111562500Y-106250000D03*
%TD*%
D23*
%TO.P,C17,1*%
%TO.N,/MCU/Chip_pu*%
X118700000Y-88500000D03*
%TO.P,C17,2*%
%TO.N,GND*%
X117565000Y-88500000D03*
%TD*%
D24*
%TO.P,C21,1*%
%TO.N,+3.3VA*%
X113737500Y-111600000D03*
%TO.P,C21,2*%
%TO.N,GND*%
X115462500Y-111600000D03*
%TD*%
D25*
%TO.P,L5,1,1*%
%TO.N,VBUS*%
X123800000Y-120445000D03*
%TO.P,L5,2,2*%
%TO.N,+5V*%
X123800000Y-119300000D03*
%TD*%
D16*
%TO.P,C10,1*%
%TO.N,+3.3V*%
X140272500Y-92490000D03*
%TO.P,C10,2*%
%TO.N,GND*%
X141407500Y-92490000D03*
%TD*%
D15*
%TO.P,R1,1*%
%TO.N,Net-(U1-SPID)*%
X154802500Y-92300000D03*
%TO.P,R1,2*%
%TO.N,SPID*%
X155997500Y-92300000D03*
%TD*%
D10*
%TO.P,R9,1*%
%TO.N,+5V*%
X119795000Y-118900000D03*
%TO.P,R9,2*%
%TO.N,/PSU/+5V_FILT*%
X118600000Y-118900000D03*
%TD*%
D15*
%TO.P,R2,1*%
%TO.N,Net-(U1-SPIQ)*%
X145502500Y-96800000D03*
%TO.P,R2,2*%
%TO.N,SPIQ*%
X146697500Y-96800000D03*
%TD*%
D18*
%TO.P,R13,1*%
%TO.N,/PSU/BUCK_FB*%
X116900000Y-107200000D03*
%TO.P,R13,2*%
%TO.N,GND*%
X116900000Y-108395000D03*
%TD*%
D21*
%TO.P,C13,1*%
%TO.N,+3.3V*%
X112400000Y-97032500D03*
%TO.P,C13,2*%
%TO.N,GND*%
X112400000Y-98167500D03*
%TD*%
D10*
%TO.P,R14,1*%
%TO.N,/PSU/LED_PWR_K*%
X103570000Y-106200000D03*
%TO.P,R14,2*%
%TO.N,GND*%
X102375000Y-106200000D03*
%TD*%
D26*
%TO.P,SW1,1,1*%
%TO.N,/MCU/Chip_pu*%
X118650000Y-79250000D03*
X118650000Y-85750000D03*
%TO.P,SW1,2,2*%
%TO.N,GND*%
X114150000Y-79250000D03*
X114150000Y-85750000D03*
%TD*%
D24*
%TO.P,C20,1*%
%TO.N,/PSU/+5V_FILT*%
X114037500Y-121000000D03*
%TO.P,C20,2*%
%TO.N,GND*%
X115762500Y-121000000D03*
%TD*%
D27*
%TO.P,D2,1,K*%
%TO.N,/PSU/LED_PWR_K*%
X105200000Y-106200000D03*
%TO.P,D2,2,A*%
%TO.N,+3.3V*%
X106345000Y-106200000D03*
%TD*%
D24*
%TO.P,C6,1*%
%TO.N,GND*%
X126737500Y-89300000D03*
%TO.P,C6,2*%
%TO.N,+3.3V*%
X128462500Y-89300000D03*
%TD*%
D28*
%TO.P,U1,1,LNA_IN*%
%TO.N,unconnected-(U1-LNA_IN-Pad1)*%
X133850000Y-95100000D03*
%TO.P,U1,2,VDD3P3*%
%TO.N,/MCU/vdd_3p3 in*%
X133850000Y-95500000D03*
%TO.P,U1,3,VDD3P3*%
X133850000Y-95900000D03*
%TO.P,U1,4,CHIP_PU*%
%TO.N,/MCU/Chip_pu*%
X133850000Y-96300000D03*
%TO.P,U1,5,GPIO0*%
%TO.N,Net-(U1-GPIO0)*%
X133850000Y-96700000D03*
%TO.P,U1,6,GPIO1*%
%TO.N,I2C_SDA*%
X133850000Y-97100000D03*
%TO.P,U1,7,GPIO2*%
%TO.N,I2C_SCL*%
X133850000Y-97500000D03*
%TO.P,U1,8,GPIO3*%
%TO.N,unconnected-(U1-GPIO3-Pad8)*%
X133850000Y-97900000D03*
%TO.P,U1,9,GPIO4*%
%TO.N,unconnected-(U1-GPIO4-Pad9)*%
X133850000Y-98300000D03*
%TO.P,U1,10,GPIO5*%
%TO.N,unconnected-(U1-GPIO5-Pad10)*%
X133850000Y-98700000D03*
%TO.P,U1,11,GPIO6*%
%TO.N,unconnected-(U1-GPIO6-Pad11)*%
X133850000Y-99100000D03*
%TO.P,U1,12,GPIO7*%
%TO.N,unconnected-(U1-GPIO7-Pad12)*%
X133850000Y-99500000D03*
%TO.P,U1,13,GPIO8*%
%TO.N,unconnected-(U1-GPIO8-Pad13)*%
X133850000Y-99900000D03*
%TO.P,U1,14,GPIO9*%
%TO.N,unconnected-(U1-GPIO9-Pad14)*%
X133850000Y-100300000D03*
D29*
%TO.P,U1,15,GPIO10*%
%TO.N,unconnected-(U1-GPIO10-Pad15)*%
X134700000Y-101150000D03*
%TO.P,U1,16,GPIO11*%
%TO.N,unconnected-(U1-GPIO11-Pad16)*%
X135100000Y-101150000D03*
%TO.P,U1,17,GPIO12*%
%TO.N,unconnected-(U1-GPIO12-Pad17)*%
X135500000Y-101150000D03*
%TO.P,U1,18,GPIO13*%
%TO.N,unconnected-(U1-GPIO13-Pad18)*%
X135900000Y-101150000D03*
%TO.P,U1,19,GPIO14*%
%TO.N,unconnected-(U1-GPIO14-Pad19)*%
X136300000Y-101150000D03*
%TO.P,U1,20,VDD3P3_RTC*%
%TO.N,+3.3V*%
X136700000Y-101150000D03*
%TO.P,U1,21,XTAL_32K_P*%
%TO.N,unconnected-(U1-XTAL_32K_P-Pad21)*%
X137100000Y-101150000D03*
%TO.P,U1,22,XTAL_32K_N*%
%TO.N,unconnected-(U1-XTAL_32K_N-Pad22)*%
X137500000Y-101150000D03*
%TO.P,U1,23,GPIO17*%
%TO.N,unconnected-(U1-GPIO17-Pad23)*%
X137900000Y-101150000D03*
%TO.P,U1,24,GPIO18*%
%TO.N,unconnected-(U1-GPIO18-Pad24)*%
X138300000Y-101150000D03*
%TO.P,U1,25,GPIO19/USB_D-*%
%TO.N,USB_D-*%
X138700000Y-101150000D03*
%TO.P,U1,26,GPIO20/USB_D+*%
%TO.N,USB_D+*%
X139100000Y-101150000D03*
%TO.P,U1,27,GPIO21*%
%TO.N,unconnected-(U1-GPIO21-Pad27)*%
X139500000Y-101150000D03*
%TO.P,U1,28,SPICS1*%
%TO.N,SPICS1*%
X139900000Y-101150000D03*
D28*
%TO.P,U1,29,VDD_SPI*%
%TO.N,VDD_SPI*%
X140750000Y-100300000D03*
%TO.P,U1,30,SPIHD*%
%TO.N,Net-(U1-SPIHD)*%
X140750000Y-99900000D03*
%TO.P,U1,31,SPIWP*%
%TO.N,Net-(U1-SPIWP)*%
X140750000Y-99500000D03*
%TO.P,U1,32,SPICS0*%
%TO.N,SPICS0*%
X140750000Y-99100000D03*
%TO.P,U1,33,SPICLK*%
%TO.N,Net-(U1-SPICLK)*%
X140750000Y-98700000D03*
%TO.P,U1,34,SPIQ*%
%TO.N,Net-(U1-SPIQ)*%
X140750000Y-98300000D03*
%TO.P,U1,35,SPID*%
%TO.N,Net-(U1-SPID)*%
X140750000Y-97900000D03*
%TO.P,U1,36,SPICLK_N*%
%TO.N,unconnected-(U1-SPICLK_N-Pad36)*%
X140750000Y-97500000D03*
%TO.P,U1,37,SPICLK_P*%
%TO.N,unconnected-(U1-SPICLK_P-Pad37)*%
X140750000Y-97100000D03*
%TO.P,U1,38,GPIO33*%
%TO.N,unconnected-(U1-GPIO33-Pad38)*%
X140750000Y-96700000D03*
%TO.P,U1,39,GPIO34*%
%TO.N,unconnected-(U1-GPIO34-Pad39)*%
X140750000Y-96300000D03*
%TO.P,U1,40,GPIO35*%
%TO.N,unconnected-(U1-GPIO35-Pad40)*%
X140750000Y-95900000D03*
%TO.P,U1,41,GPIO36*%
%TO.N,unconnected-(U1-GPIO36-Pad41)*%
X140750000Y-95500000D03*
%TO.P,U1,42,GPIO37*%
%TO.N,unconnected-(U1-GPIO37-Pad42)*%
X140750000Y-95100000D03*
D29*
%TO.P,U1,43,GPIO38*%
%TO.N,unconnected-(U1-GPIO38-Pad43)*%
X139900000Y-94250000D03*
%TO.P,U1,44,MTCK*%
%TO.N,unconnected-(U1-MTCK-Pad44)*%
X139500000Y-94250000D03*
%TO.P,U1,45,MTDO*%
%TO.N,unconnected-(U1-MTDO-Pad45)*%
X139100000Y-94250000D03*
%TO.P,U1,46,VDD3P3_CPU*%
%TO.N,+3.3V*%
X138700000Y-94250000D03*
%TO.P,U1,47,MTDI*%
%TO.N,unconnected-(U1-MTDI-Pad47)*%
X138300000Y-94250000D03*
%TO.P,U1,48,MTMS*%
%TO.N,unconnected-(U1-MTMS-Pad48)*%
X137900000Y-94250000D03*
%TO.P,U1,49,U0TXD*%
%TO.N,UART_TX*%
X137500000Y-94250000D03*
%TO.P,U1,50,U0RXD*%
%TO.N,UART_RX*%
X137100000Y-94250000D03*
%TO.P,U1,51,GPIO45*%
%TO.N,unconnected-(U1-GPIO45-Pad51)*%
X136700000Y-94250000D03*
%TO.P,U1,52,GPIO46*%
%TO.N,Net-(U1-GPIO46)*%
X136300000Y-94250000D03*
%TO.P,U1,53,XTAL_N*%
%TO.N,/MCU/XTAL_N*%
X135900000Y-94250000D03*
%TO.P,U1,54,XTAL_P*%
%TO.N,/MCU/XTAL_P*%
X135500000Y-94250000D03*
%TO.P,U1,55,VDDA*%
%TO.N,+3.3VA*%
X135100000Y-94250000D03*
%TO.P,U1,56,VDDA*%
X134700000Y-94250000D03*
D30*
%TO.P,U1,57,GND*%
%TO.N,GND*%
X137300000Y-97700000D03*
%TD*%
D16*
%TO.P,C4,1*%
%TO.N,GND*%
X127532500Y-93000000D03*
%TO.P,C4,2*%
%TO.N,+3.3V*%
X128667500Y-93000000D03*
%TD*%
D17*
%TO.P,R8,1*%
%TO.N,Net-(U1-GPIO46)*%
X138540000Y-87197500D03*
%TO.P,R8,2*%
%TO.N,GND*%
X138540000Y-86002500D03*
%TD*%
D31*
%TO.P,U5,1,IN*%
%TO.N,/PSU/+5V_FILT*%
X113950000Y-118600000D03*
%TO.P,U5,2,GND*%
%TO.N,GND*%
X113950000Y-116300000D03*
D32*
X107650000Y-116300000D03*
D31*
%TO.P,U5,3,OUT*%
%TO.N,+3.3VA*%
X113950000Y-114000000D03*
%TD*%
D15*
%TO.P,R3,1*%
%TO.N,Net-(U1-SPICLK)*%
X154802500Y-93600000D03*
%TO.P,R3,2*%
%TO.N,SPICLK*%
X155997500Y-93600000D03*
%TD*%
%TO.P,R4,1*%
%TO.N,Net-(U1-SPIWP)*%
X145405000Y-98900000D03*
%TO.P,R4,2*%
%TO.N,SPIWP*%
X146600000Y-98900000D03*
%TD*%
D33*
%TO.P,C2,1*%
%TO.N,+3.3VA*%
X134100000Y-92667500D03*
%TO.P,C2,2*%
%TO.N,GND*%
X134100000Y-91532500D03*
%TD*%
D34*
%TO.P,C19,1*%
%TO.N,+5V*%
X121500000Y-118937500D03*
%TO.P,C19,2*%
%TO.N,GND*%
X121500000Y-120662500D03*
%TD*%
D35*
%TO.P,C1,1*%
%TO.N,+3.3VA*%
X132300000Y-92662500D03*
%TO.P,C1,2*%
%TO.N,GND*%
X132300000Y-90937500D03*
%TD*%
D36*
%TO.P,U4,1,SDO*%
%TO.N,GND*%
X116400000Y-96488600D03*
%TO.P,U4,2,NC*%
%TO.N,unconnected-(U4-NC-Pad2)*%
X115899999Y-96488600D03*
%TO.P,U4,3,NC*%
%TO.N,unconnected-(U4-NC-Pad3)*%
X115399999Y-96488600D03*
%TO.P,U4,4,INT1*%
%TO.N,unconnected-(U4-INT1-Pad4)*%
X114899998Y-96488600D03*
D37*
%TO.P,U4,5,VDDIO*%
%TO.N,+3.3V*%
X114735599Y-97144301D03*
%TO.P,U4,6,GNDIO*%
%TO.N,GND*%
X114735599Y-97644300D03*
%TO.P,U4,7,GND*%
X114735599Y-98144299D03*
D36*
%TO.P,U4,8,VDD*%
%TO.N,+3.3VA*%
X114899998Y-98800000D03*
%TO.P,U4,9,INT2*%
%TO.N,unconnected-(U4-INT2-Pad9)*%
X115399999Y-98800000D03*
%TO.P,U4,10,NC*%
%TO.N,unconnected-(U4-NC-Pad10)*%
X115899999Y-98800000D03*
%TO.P,U4,11,NC*%
%TO.N,unconnected-(U4-NC-Pad11)*%
X116400000Y-98800000D03*
D37*
%TO.P,U4,12,CSB*%
%TO.N,+3.3V*%
X116564399Y-98144299D03*
%TO.P,U4,13,SCX*%
%TO.N,I2C_SCL*%
X116564399Y-97644300D03*
%TO.P,U4,14,SDX*%
%TO.N,I2C_SDA*%
X116564399Y-97144301D03*
%TD*%
D38*
%TO.P,J4,1,Pin_1*%
%TO.N,+3.3V*%
X148660000Y-84150000D03*
D39*
%TO.P,J4,2,Pin_2*%
%TO.N,UART_TX*%
X147160000Y-84150000D03*
%TO.P,J4,3,Pin_3*%
%TO.N,UART_RX*%
X145660000Y-84150000D03*
%TO.P,J4,4,Pin_4*%
%TO.N,GND*%
X144160000Y-84150000D03*
%TD*%
D24*
%TO.P,C5,1*%
%TO.N,GND*%
X126837500Y-91300000D03*
%TO.P,C5,2*%
%TO.N,+3.3V*%
X128562500Y-91300000D03*
%TD*%
D40*
%TO.P,C22,1*%
%TO.N,+5V*%
X109362500Y-103900000D03*
%TO.P,C22,2*%
%TO.N,GND*%
X107637500Y-103900000D03*
%TD*%
D27*
%TO.P,L1,1,1*%
%TO.N,+3.3V*%
X130795000Y-94500000D03*
%TO.P,L1,2,2*%
%TO.N,/MCU/vdd_3p3 in*%
X131940000Y-94500000D03*
%TD*%
D10*
%TO.P,R6,1*%
%TO.N,+3.3V*%
X122695000Y-85700000D03*
%TO.P,R6,2*%
%TO.N,/MCU/Chip_pu*%
X121500000Y-85700000D03*
%TD*%
D18*
%TO.P,R16,1*%
%TO.N,+3.3V*%
X118400000Y-95402500D03*
%TO.P,R16,2*%
%TO.N,I2C_SDA*%
X118400000Y-96597500D03*
%TD*%
D24*
%TO.P,C23,1*%
%TO.N,+3.3V*%
X119837500Y-104300000D03*
%TO.P,C23,2*%
%TO.N,GND*%
X121562500Y-104300000D03*
%TD*%
D16*
%TO.P,C24,1*%
%TO.N,+3.3V*%
X108300000Y-106200000D03*
%TO.P,C24,2*%
%TO.N,/PSU/BUCK_FB*%
X109435000Y-106200000D03*
%TD*%
%TO.P,C3,1*%
%TO.N,GND*%
X130932500Y-95600000D03*
%TO.P,C3,2*%
%TO.N,/MCU/vdd_3p3 in*%
X132067500Y-95600000D03*
%TD*%
D33*
%TO.P,C11,1*%
%TO.N,/MCU/XTAL_N*%
X137280000Y-85827500D03*
%TO.P,C11,2*%
%TO.N,GND*%
X137280000Y-84692500D03*
%TD*%
D24*
%TO.P,C18,1*%
%TO.N,VBUS*%
X125437500Y-120272500D03*
%TO.P,C18,2*%
%TO.N,GND*%
X127162500Y-120272500D03*
%TD*%
D16*
%TO.P,C14,1*%
%TO.N,GND*%
X112332500Y-100600000D03*
%TO.P,C14,2*%
%TO.N,+3.3VA*%
X113467500Y-100600000D03*
%TD*%
D34*
%TO.P,C9,1*%
%TO.N,VDD_SPI*%
X143700000Y-101387500D03*
%TO.P,C9,2*%
%TO.N,GND*%
X143700000Y-103112500D03*
%TD*%
D23*
%TO.P,C7,1*%
%TO.N,+3.3V*%
X136067500Y-102600000D03*
%TO.P,C7,2*%
%TO.N,GND*%
X134932500Y-102600000D03*
%TD*%
D16*
%TO.P,C12,1*%
%TO.N,Net-(C12-Pad1)*%
X134232500Y-88500000D03*
%TO.P,C12,2*%
%TO.N,GND*%
X135367500Y-88500000D03*
%TD*%
D41*
%TO.P,L6,1,1*%
%TO.N,/PSU/BUCK_SW*%
X116125000Y-104300000D03*
%TO.P,L6,2,2*%
%TO.N,+3.3V*%
X117875000Y-104300000D03*
%TD*%
D42*
%TO.P,U3,1,~{CE}*%
%TO.N,SPICS1*%
X169515000Y-102365000D03*
%TO.P,U3,2,SO/SIO*%
%TO.N,SPIQ*%
X169515000Y-101095000D03*
%TO.P,U3,3,SIO2*%
%TO.N,SPIWP*%
X169515000Y-99825000D03*
%TO.P,U3,4,VSS*%
%TO.N,GND*%
X169515000Y-98555000D03*
%TO.P,U3,5,SI/SIO*%
%TO.N,SPID*%
X164565000Y-98555000D03*
%TO.P,U3,6,SCLK*%
%TO.N,SPICLK*%
X164565000Y-99825000D03*
%TO.P,U3,7,SIO3*%
%TO.N,SPIHD*%
X164565000Y-101095000D03*
%TO.P,U3,8,VCC*%
%TO.N,VDD_SPI*%
X164565000Y-102365000D03*
%TD*%
D15*
%TO.P,R5,1*%
%TO.N,Net-(U1-SPIHD)*%
X154805000Y-94900000D03*
%TO.P,R5,2*%
%TO.N,SPIHD*%
X156000000Y-94900000D03*
%TD*%
D43*
%TO.P,Y1,1,1*%
%TO.N,Net-(C12-Pad1)*%
X134275000Y-87075000D03*
%TO.P,Y1,2,2*%
%TO.N,GND*%
X135725000Y-87075000D03*
%TO.P,Y1,3,3*%
%TO.N,/MCU/XTAL_N*%
X135725000Y-85925000D03*
%TO.P,Y1,4,4*%
%TO.N,GND*%
X134275000Y-85925000D03*
%TD*%
D44*
%TO.P,U6,1,I/O1*%
%TO.N,/PSU/usbc_d-*%
X137960000Y-108872500D03*
%TO.P,U6,2,GND*%
%TO.N,GND*%
X138910000Y-108872500D03*
%TO.P,U6,3,I/O2*%
%TO.N,/PSU/usbc_d+*%
X139860000Y-108872500D03*
%TO.P,U6,4,I/O2*%
%TO.N,USB_D+*%
X139860000Y-106597500D03*
%TO.P,U6,5,VBUS*%
%TO.N,VBUS*%
X138910000Y-106597500D03*
%TO.P,U6,6,I/O1*%
%TO.N,USB_D-*%
X137960000Y-106597500D03*
%TD*%
D45*
%TO.N,GND*%
X135800000Y-98300000D03*
X138800000Y-98300000D03*
X135800000Y-97100000D03*
X138800000Y-97100000D03*
X138100000Y-96500000D03*
X136500000Y-96500000D03*
X138100000Y-99000000D03*
X136500000Y-98900000D03*
X138100000Y-97100000D03*
X137300000Y-97100000D03*
X136500000Y-97100000D03*
X138100000Y-98300000D03*
X137300000Y-98300000D03*
X136500000Y-98300000D03*
X136500000Y-97700000D03*
X138100000Y-97700000D03*
X143290000Y-112975000D03*
X134410000Y-112340000D03*
X133570000Y-115300000D03*
%TO.N,+3.3VA*%
X112820000Y-108570000D03*
X113530000Y-102330000D03*
X122030000Y-92330000D03*
X110230000Y-101820000D03*
X124270000Y-87110000D03*
%TO.N,GND*%
X118830000Y-108870000D03*
X105790000Y-102990000D03*
X133810000Y-90170000D03*
X112310000Y-87590000D03*
X132020000Y-89320000D03*
X168100000Y-91980000D03*
X116440000Y-92130000D03*
X102140000Y-107550000D03*
X171920000Y-98020000D03*
X119850000Y-121360000D03*
X115440000Y-105750000D03*
X136870000Y-83300000D03*
X105250000Y-115590000D03*
X141180000Y-107750000D03*
X117160000Y-113050000D03*
X141690000Y-83920000D03*
X132860000Y-85450000D03*
X112210000Y-101620000D03*
X124140000Y-104700000D03*
X115460000Y-95480000D03*
X126170000Y-87750000D03*
X129130000Y-120920000D03*
X117330000Y-121360000D03*
%TO.N,+3.3V*%
X111890000Y-111460000D03*
X119930000Y-94410000D03*
X115390000Y-107330000D03*
X121540000Y-87820000D03*
X126760000Y-86670000D03*
X122280000Y-98460000D03*
X121880000Y-95660000D03*
X124704669Y-85614669D03*
%TO.N,VDD_SPI*%
X157220000Y-101580000D03*
X154140000Y-104170000D03*
%TO.N,/PSU/BUCK_FB*%
X120900000Y-114950000D03*
X110110000Y-108930000D03*
%TO.N,SPIQ*%
X149140000Y-101690000D03*
X148320000Y-96510000D03*
%TO.N,SPIWP*%
X157140000Y-91480000D03*
X154210000Y-99430000D03*
%TO.N,Net-(U1-SPIHD)*%
X150680000Y-99900000D03*
X153950000Y-96760000D03*
%TO.N,SPICS0*%
X157490000Y-98240000D03*
X163610000Y-95050000D03*
%TD*%
D46*
%TO.N,GND*%
X137300000Y-97700000D02*
X137322936Y-97700000D01*
D47*
X136050000Y-116415000D02*
X136050000Y-114832500D01*
X135782500Y-114565000D02*
X134570000Y-114565000D01*
D48*
X142450000Y-114437500D02*
X142647500Y-114240000D01*
X142450000Y-116415000D02*
X142450000Y-114437500D01*
D47*
X136050000Y-114832500D02*
X135782500Y-114565000D01*
X135782500Y-113370000D02*
X135452500Y-113040000D01*
D48*
X142647500Y-113617500D02*
X143290000Y-112975000D01*
D49*
%TO.N,VBUS*%
X136850000Y-117033636D02*
X136850000Y-116415000D01*
X140921636Y-117762000D02*
X138900000Y-117762000D01*
D47*
X136850000Y-114632500D02*
X136917500Y-114565000D01*
D50*
%TO.N,/PSU/usbc_d+*%
X139951000Y-117336000D02*
X139049000Y-117336000D01*
X139000000Y-117287000D02*
X139000000Y-116415000D01*
X140000000Y-117287000D02*
X139951000Y-117336000D01*
X139049000Y-117336000D02*
X139000000Y-117287000D01*
%TO.N,/PSU/CC_2_pulldown*%
X141452500Y-114912500D02*
X141452500Y-114240000D01*
D49*
%TO.N,VBUS*%
X141650000Y-117033636D02*
X140921636Y-117762000D01*
D50*
%TO.N,/PSU/CC_2_pulldown*%
X141000000Y-116415000D02*
X141000000Y-115365000D01*
%TO.N,/PSU/CC_1_pulldown*%
X136647500Y-113040000D02*
X137565000Y-113040000D01*
%TO.N,/PSU/CC_2_pulldown*%
X141000000Y-115365000D02*
X141452500Y-114912500D01*
%TO.N,/PSU/CC_1_pulldown*%
X138000000Y-113475000D02*
X138000000Y-116415000D01*
D49*
%TO.N,VBUS*%
X137578364Y-117762000D02*
X136850000Y-117033636D01*
X141650000Y-116415000D02*
X141650000Y-117033636D01*
D47*
X136850000Y-116415000D02*
X136850000Y-114632500D01*
D50*
%TO.N,/PSU/CC_1_pulldown*%
X137565000Y-113040000D02*
X138000000Y-113475000D01*
D47*
%TO.N,GND*%
X135452500Y-113040000D02*
X135110000Y-113040000D01*
X134305000Y-114565000D02*
X133570000Y-115300000D01*
X134570000Y-114565000D02*
X134305000Y-114565000D01*
D50*
%TO.N,/PSU/usbc_d-*%
X139500000Y-116415000D02*
X139549999Y-116365001D01*
D47*
%TO.N,GND*%
X135110000Y-113040000D02*
X134410000Y-112340000D01*
D49*
%TO.N,VBUS*%
X138900000Y-117762000D02*
X138736000Y-117926000D01*
X138900000Y-117762000D02*
X137578364Y-117762000D01*
D50*
%TO.N,/PSU/usbc_d-*%
X139451000Y-115494000D02*
X138549000Y-115494000D01*
X138500000Y-115543000D02*
X138500000Y-116415000D01*
X138549000Y-115494000D02*
X138500000Y-115543000D01*
X139500000Y-116415000D02*
X139500000Y-115543000D01*
X139500000Y-115543000D02*
X139451000Y-115494000D01*
%TO.N,/PSU/usbc_d+*%
X140000000Y-116415000D02*
X140000000Y-117287000D01*
D48*
%TO.N,GND*%
X142647500Y-114240000D02*
X142647500Y-113617500D01*
D47*
X135782500Y-114565000D02*
X135782500Y-113370000D01*
D50*
%TO.N,Net-(C12-Pad1)*%
X134232500Y-89192500D02*
X135087500Y-90047500D01*
X134232500Y-88500000D02*
X134232500Y-89192500D01*
X135087500Y-90047500D02*
X135320000Y-90047500D01*
%TO.N,/MCU/XTAL_N*%
X135900000Y-93000000D02*
X137280000Y-91620000D01*
X137280000Y-91620000D02*
X137280000Y-85827500D01*
X135900000Y-94250000D02*
X135900000Y-93000000D01*
%TO.N,/MCU/XTAL_P*%
X135320000Y-91670000D02*
X135320000Y-91192500D01*
X135110000Y-93100000D02*
X135110000Y-91880000D01*
X135500000Y-94250000D02*
X135500000Y-93490000D01*
X135500000Y-93490000D02*
X135110000Y-93100000D01*
X135110000Y-91880000D02*
X135320000Y-91670000D01*
X135500000Y-91372500D02*
X135320000Y-91192500D01*
%TO.N,UART_RX*%
X145660000Y-84675610D02*
X145660000Y-84150000D01*
X137100000Y-93235610D02*
X145660000Y-84675610D01*
X137100000Y-94250000D02*
X137100000Y-93235610D01*
%TO.N,+3.3VA*%
X135100000Y-94250000D02*
X135100000Y-93667500D01*
X134700000Y-94250000D02*
X134700000Y-93267500D01*
D48*
X130580000Y-86250000D02*
X130580000Y-91860000D01*
D47*
X114896999Y-99113001D02*
X114896999Y-98800000D01*
D48*
X130580000Y-91860000D02*
X131382500Y-92662500D01*
D47*
X113467500Y-100542500D02*
X114896999Y-99113001D01*
D48*
X111260000Y-93300000D02*
X120590000Y-93300000D01*
X129520000Y-85190000D02*
X130580000Y-86250000D01*
X110310000Y-94250000D02*
X110960000Y-93600000D01*
X113530000Y-100662500D02*
X113467500Y-100600000D01*
X124270000Y-87110000D02*
X126190000Y-85190000D01*
D50*
X134700000Y-93267500D02*
X134100000Y-92667500D01*
D48*
X110960000Y-93600000D02*
X111260000Y-93300000D01*
D47*
X113467500Y-100600000D02*
X113467500Y-100542500D01*
D50*
X135100000Y-93667500D02*
X134100000Y-92667500D01*
D48*
X110230000Y-101820000D02*
X110310000Y-101740000D01*
X113737500Y-111600000D02*
X113737500Y-109487500D01*
X121060000Y-93300000D02*
X122030000Y-92330000D01*
X113950000Y-114000000D02*
X113950000Y-111812500D01*
X126190000Y-85190000D02*
X129520000Y-85190000D01*
X110310000Y-101740000D02*
X110310000Y-94560000D01*
X132300000Y-92662500D02*
X134095000Y-92662500D01*
X110310000Y-94560000D02*
X110310000Y-94250000D01*
X113530000Y-102330000D02*
X113530000Y-100662500D01*
X131382500Y-92662500D02*
X132300000Y-92662500D01*
X134095000Y-92662500D02*
X134100000Y-92667500D01*
X113950000Y-111812500D02*
X113737500Y-111600000D01*
X120590000Y-93300000D02*
X121060000Y-93300000D01*
X113737500Y-109487500D02*
X112820000Y-108570000D01*
%TO.N,GND*%
X126737500Y-89300000D02*
X126737500Y-88317500D01*
X118355000Y-108395000D02*
X118830000Y-108870000D01*
X107650000Y-116300000D02*
X113950000Y-116300000D01*
X117020000Y-92130000D02*
X116440000Y-92130000D01*
D47*
X134100000Y-91532500D02*
X134100000Y-90460000D01*
D48*
X138540000Y-86002500D02*
X138540000Y-85645001D01*
D51*
X114150000Y-85750000D02*
X112310000Y-87590000D01*
D50*
X133335000Y-85925000D02*
X132860000Y-85450000D01*
X135543756Y-87075000D02*
X135725000Y-87075000D01*
D48*
X171385000Y-98555000D02*
X171920000Y-98020000D01*
X117565000Y-91585000D02*
X117150000Y-92000000D01*
X112400000Y-101430000D02*
X112210000Y-101620000D01*
X112400000Y-98167500D02*
X112459800Y-98107700D01*
X114990000Y-105300000D02*
X115440000Y-105750000D01*
X105960000Y-116300000D02*
X105250000Y-115590000D01*
X117565000Y-88500000D02*
X117565000Y-91585000D01*
X115762500Y-121000000D02*
X116970000Y-121000000D01*
X137587499Y-84692500D02*
X137280000Y-84692500D01*
X137280000Y-84692500D02*
X137280000Y-83710000D01*
D50*
X135367500Y-88500000D02*
X135367500Y-87432500D01*
D46*
X141407500Y-93615436D02*
X137322936Y-97700000D01*
D48*
X112459800Y-98107700D02*
X114735599Y-98107700D01*
X169515000Y-98555000D02*
X171385000Y-98555000D01*
X167585000Y-92495000D02*
X168100000Y-91980000D01*
X139465900Y-107750000D02*
X141180000Y-107750000D01*
X126737500Y-92205000D02*
X127532500Y-93000000D01*
D47*
X132300000Y-90937500D02*
X132300000Y-89600000D01*
D48*
X106700000Y-103900000D02*
X105790000Y-102990000D01*
X138540000Y-85645001D02*
X137587499Y-84692500D01*
X143700000Y-103112500D02*
X143125000Y-103112500D01*
X138910000Y-108872500D02*
X138910000Y-108305900D01*
X113837500Y-105300000D02*
X114990000Y-105300000D01*
D50*
X116400000Y-96018301D02*
X115861699Y-95480000D01*
D46*
X141617500Y-102017500D02*
X142030000Y-102017500D01*
D47*
X130132500Y-95600000D02*
X127532500Y-93000000D01*
D48*
X138910000Y-108305900D02*
X139465900Y-107750000D01*
D50*
X116400000Y-96488600D02*
X116400000Y-96018301D01*
D47*
X132300000Y-89600000D02*
X132020000Y-89320000D01*
D48*
X143125000Y-103112500D02*
X142030000Y-102017500D01*
X141920000Y-84150000D02*
X141690000Y-83920000D01*
X128482500Y-120272500D02*
X129130000Y-120920000D01*
D46*
X134340000Y-102007500D02*
X134932500Y-102600000D01*
D48*
X115462500Y-111600000D02*
X115710000Y-111600000D01*
D47*
X134100000Y-90460000D02*
X133810000Y-90170000D01*
D48*
X137280000Y-83710000D02*
X136870000Y-83300000D01*
X121500000Y-120662500D02*
X120547500Y-120662500D01*
D50*
X134275000Y-85925000D02*
X133335000Y-85925000D01*
D48*
X116970000Y-121000000D02*
X117330000Y-121360000D01*
X107650000Y-116300000D02*
X105960000Y-116300000D01*
D46*
X134340000Y-100660000D02*
X134340000Y-102007500D01*
D50*
X123740000Y-104300000D02*
X124140000Y-104700000D01*
D48*
X107637500Y-103900000D02*
X106700000Y-103900000D01*
D51*
X114150000Y-79250000D02*
X114150000Y-85750000D01*
D48*
X126737500Y-88317500D02*
X126170000Y-87750000D01*
D50*
X114735599Y-97644300D02*
X114735599Y-98107700D01*
D47*
X130932500Y-95600000D02*
X130132500Y-95600000D01*
D48*
X127162500Y-120272500D02*
X128482500Y-120272500D01*
X116900000Y-108395000D02*
X118355000Y-108395000D01*
D50*
X134275000Y-85925000D02*
X134393756Y-85925000D01*
D48*
X115710000Y-111600000D02*
X117160000Y-113050000D01*
X117150000Y-92000000D02*
X117020000Y-92130000D01*
X126737500Y-89300000D02*
X126737500Y-92205000D01*
D50*
X134393756Y-85925000D02*
X135543756Y-87075000D01*
D48*
X120547500Y-120662500D02*
X119850000Y-121360000D01*
X144160000Y-84150000D02*
X141920000Y-84150000D01*
X112400000Y-98167500D02*
X112400000Y-101430000D01*
X165987500Y-92495000D02*
X167585000Y-92495000D01*
D50*
X121562500Y-104300000D02*
X123740000Y-104300000D01*
D48*
X102375000Y-107315000D02*
X102140000Y-107550000D01*
X102375000Y-106200000D02*
X102375000Y-107315000D01*
D46*
X141407500Y-92490000D02*
X141407500Y-93615436D01*
X137300000Y-97700000D02*
X141617500Y-102017500D01*
X137300000Y-97700000D02*
X134340000Y-100660000D01*
D50*
X135367500Y-87432500D02*
X135725000Y-87075000D01*
X115861699Y-95480000D02*
X115460000Y-95480000D01*
%TO.N,/MCU/vdd_3p3 in*%
X133850000Y-95900000D02*
X133030000Y-95900000D01*
X133030000Y-95900000D02*
X132730000Y-95600000D01*
X132350000Y-94500000D02*
X131940000Y-94500000D01*
X133350000Y-95500000D02*
X132350000Y-94500000D01*
X133850000Y-95900000D02*
X133850000Y-95500000D01*
X132730000Y-95600000D02*
X132067500Y-95600000D01*
X133850000Y-95500000D02*
X133350000Y-95500000D01*
D47*
%TO.N,+3.3V*%
X112508800Y-97141300D02*
X114732598Y-97141300D01*
D48*
X122780331Y-85614669D02*
X122695000Y-85700000D01*
X119837500Y-99950000D02*
X120790000Y-99950000D01*
D50*
X136700000Y-101150000D02*
X136700000Y-101967500D01*
D51*
X119246799Y-98144299D02*
X120000000Y-98897500D01*
D47*
X147770000Y-87960000D02*
X148660000Y-87070000D01*
D48*
X108300000Y-106200000D02*
X106345000Y-106200000D01*
X119837500Y-104300000D02*
X119837500Y-105940000D01*
D50*
X139362500Y-92497500D02*
X140190000Y-92497500D01*
D48*
X121880000Y-95660000D02*
X119850000Y-95660000D01*
X111890000Y-111460000D02*
X109570000Y-111460000D01*
X148660000Y-83110000D02*
X148660000Y-84150000D01*
X128562500Y-92895000D02*
X128667500Y-93000000D01*
X128462500Y-89300000D02*
X128462500Y-91200000D01*
D47*
X112400000Y-97032500D02*
X112508800Y-97141300D01*
D48*
X128667500Y-93000000D02*
X129295000Y-93000000D01*
X117875000Y-104845000D02*
X115390000Y-107330000D01*
X148099000Y-82549000D02*
X148660000Y-83110000D01*
D50*
X138700000Y-93160000D02*
X139362500Y-92497500D01*
X114735599Y-97144301D02*
X115205900Y-97144301D01*
D48*
X124704669Y-85614669D02*
X122780331Y-85614669D01*
D50*
X136700000Y-101967500D02*
X136067500Y-102600000D01*
D48*
X119930000Y-94700000D02*
X119850000Y-94780000D01*
X109570000Y-111460000D02*
X108300000Y-110190000D01*
D47*
X144802500Y-87960000D02*
X147770000Y-87960000D01*
D48*
X128462500Y-89300000D02*
X128462500Y-88372500D01*
X117875000Y-104300000D02*
X117875000Y-104845000D01*
D47*
X148660000Y-87070000D02*
X148660000Y-84150000D01*
D48*
X128562500Y-91300000D02*
X128562500Y-92895000D01*
X119837500Y-105940000D02*
X119900000Y-106002500D01*
X119837500Y-104300000D02*
X119837500Y-99950000D01*
X129295000Y-93000000D02*
X130795000Y-94500000D01*
X119837500Y-99060000D02*
X120000000Y-98897500D01*
X119930000Y-94410000D02*
X119930000Y-94700000D01*
X118657500Y-95660000D02*
X118400000Y-95402500D01*
X119837500Y-99950000D02*
X119837500Y-99060000D01*
X136067500Y-104072500D02*
X136067500Y-102600000D01*
D47*
X140272500Y-92490000D02*
X144802500Y-87960000D01*
D48*
X108300000Y-110190000D02*
X108300000Y-106200000D01*
X117875000Y-104300000D02*
X119837500Y-104300000D01*
X119850000Y-95660000D02*
X118657500Y-95660000D01*
X122695000Y-86665000D02*
X122695000Y-85700000D01*
X135729000Y-104411000D02*
X136067500Y-104072500D01*
X125251000Y-104411000D02*
X135729000Y-104411000D01*
X121540000Y-87820000D02*
X122695000Y-86665000D01*
D50*
X138700000Y-93160000D02*
X138700000Y-94250000D01*
D48*
X120790000Y-99950000D02*
X122280000Y-98460000D01*
X128462500Y-88372500D02*
X126760000Y-86670000D01*
X119850000Y-94780000D02*
X119850000Y-95660000D01*
X122695000Y-85700000D02*
X125846000Y-82549000D01*
X128462500Y-91200000D02*
X128562500Y-91300000D01*
X120790000Y-99950000D02*
X125251000Y-104411000D01*
X125846000Y-82549000D02*
X148099000Y-82549000D01*
D51*
X116564399Y-98144299D02*
X119246799Y-98144299D01*
D50*
X115205900Y-97144301D02*
X116205898Y-98144299D01*
X116205898Y-98144299D02*
X116564399Y-98144299D01*
D48*
%TO.N,VDD_SPI*%
X149030000Y-104170000D02*
X154140000Y-104170000D01*
X157220000Y-101580000D02*
X160360000Y-101580000D01*
X143700000Y-101387500D02*
X143195000Y-100882500D01*
D50*
X140750000Y-100300000D02*
X141447500Y-100300000D01*
D51*
X160905000Y-102365000D02*
X164565000Y-102365000D01*
X160360000Y-101820000D02*
X160905000Y-102365000D01*
D50*
X141447500Y-100300000D02*
X142030000Y-100882500D01*
D48*
X148700000Y-103840000D02*
X149030000Y-104170000D01*
D51*
X159835000Y-96305000D02*
X160360000Y-96830000D01*
D48*
X143195000Y-100882500D02*
X142030000Y-100882500D01*
X143700000Y-101387500D02*
X146247500Y-101387500D01*
X146247500Y-101387500D02*
X148700000Y-103840000D01*
D51*
X160360000Y-96830000D02*
X160360000Y-101580000D01*
X160360000Y-101580000D02*
X160360000Y-101820000D01*
X158812500Y-96305000D02*
X159835000Y-96305000D01*
D50*
%TO.N,/MCU/XTAL_N*%
X135822500Y-85827500D02*
X135725000Y-85925000D01*
X137280000Y-85827500D02*
X135822500Y-85827500D01*
%TO.N,Net-(C12-Pad1)*%
X134232500Y-88500000D02*
X134232500Y-87117500D01*
X134232500Y-87117500D02*
X134275000Y-87075000D01*
D51*
%TO.N,/MCU/Chip_pu*%
X118650000Y-85750000D02*
X118650000Y-88450000D01*
D50*
X121550000Y-88500000D02*
X118700000Y-88500000D01*
D51*
X118650000Y-79250000D02*
X118650000Y-85750000D01*
X118650000Y-88450000D02*
X118700000Y-88500000D01*
D50*
X133850000Y-96300000D02*
X129350000Y-96300000D01*
X121500000Y-85700000D02*
X118700000Y-85700000D01*
X118700000Y-85700000D02*
X118650000Y-85750000D01*
X129350000Y-96300000D02*
X121550000Y-88500000D01*
D48*
%TO.N,VBUS*%
X138410999Y-107759000D02*
X137162482Y-107759000D01*
X123972500Y-120272500D02*
X123800000Y-120445000D01*
X138910000Y-106597500D02*
X138910000Y-107259999D01*
X138910000Y-107259999D02*
X138410999Y-107759000D01*
X137162482Y-107759000D02*
X131540000Y-113381482D01*
X127961018Y-116390000D02*
X125437500Y-118913518D01*
X125437500Y-120272500D02*
X123972500Y-120272500D01*
X131540000Y-116390000D02*
X127961018Y-116390000D01*
X131540000Y-113381482D02*
X131540000Y-116390000D01*
X125437500Y-118913518D02*
X125437500Y-120272500D01*
%TO.N,+5V*%
X123800000Y-119300000D02*
X121862500Y-119300000D01*
X119832500Y-118937500D02*
X119795000Y-118900000D01*
X111562500Y-104350000D02*
X109812500Y-104350000D01*
X113079100Y-106250000D02*
X111562500Y-104733400D01*
X121862500Y-119300000D02*
X121500000Y-118937500D01*
X109812500Y-104350000D02*
X109362500Y-103900000D01*
X113837500Y-107677500D02*
X113837500Y-106250000D01*
X113837500Y-106250000D02*
X113079100Y-106250000D01*
X121500000Y-118937500D02*
X119832500Y-118937500D01*
X119795000Y-113635000D02*
X113837500Y-107677500D01*
X119795000Y-118900000D02*
X119795000Y-113635000D01*
X111562500Y-104733400D02*
X111562500Y-104350000D01*
%TO.N,/PSU/+5V_FILT*%
X114250000Y-118900000D02*
X113950000Y-118600000D01*
X114037500Y-118687500D02*
X113950000Y-118600000D01*
X114037500Y-121000000D02*
X114037500Y-118687500D01*
X118600000Y-118900000D02*
X114250000Y-118900000D01*
%TO.N,/PSU/BUCK_FB*%
X119900000Y-107197500D02*
X116902500Y-107197500D01*
X109485000Y-106250000D02*
X109435000Y-106200000D01*
X116902500Y-107197500D02*
X116900000Y-107200000D01*
X111562500Y-107477500D02*
X110110000Y-108930000D01*
X120900000Y-108197500D02*
X119900000Y-107197500D01*
X120900000Y-114950000D02*
X120900000Y-108197500D01*
X111562500Y-106250000D02*
X111562500Y-107477500D01*
X111562500Y-106250000D02*
X109485000Y-106250000D01*
%TO.N,/PSU/LED_PWR_K*%
X105200000Y-106200000D02*
X103570000Y-106200000D01*
D50*
%TO.N,UART_TX*%
X137500000Y-93750000D02*
X144850000Y-86400000D01*
X137500000Y-94250000D02*
X137500000Y-93750000D01*
X145345000Y-86400000D02*
X147160000Y-84585000D01*
X144850000Y-86400000D02*
X145345000Y-86400000D01*
X147160000Y-84585000D02*
X147160000Y-84150000D01*
D48*
%TO.N,/PSU/BUCK_SW*%
X116075000Y-104350000D02*
X116125000Y-104300000D01*
X113837500Y-104350000D02*
X116075000Y-104350000D01*
D50*
%TO.N,Net-(U1-SPID)*%
X146850000Y-92300000D02*
X154802500Y-92300000D01*
X140750000Y-97900000D02*
X141250000Y-97900000D01*
X141250000Y-97900000D02*
X146850000Y-92300000D01*
D51*
%TO.N,SPID*%
X155997500Y-92300000D02*
X158617500Y-92300000D01*
X158617500Y-92300000D02*
X158812500Y-92495000D01*
X159624999Y-92495000D02*
X164565000Y-97435001D01*
X164565000Y-97435001D02*
X164565000Y-98555000D01*
X158812500Y-92495000D02*
X159624999Y-92495000D01*
%TO.N,SPIQ*%
X167689000Y-99686678D02*
X169097322Y-101095000D01*
D47*
X169061966Y-101095000D02*
X169515000Y-101095000D01*
D51*
X169097322Y-101095000D02*
X169515000Y-101095000D01*
D47*
X149140000Y-101690000D02*
X150491000Y-103041000D01*
D51*
X167689000Y-95819000D02*
X167689000Y-99686678D01*
X165987500Y-95035000D02*
X166905000Y-95035000D01*
X166905000Y-95035000D02*
X167689000Y-95819000D01*
D47*
X146697500Y-96800000D02*
X148030000Y-96800000D01*
X148030000Y-96800000D02*
X148320000Y-96510000D01*
X167115966Y-103041000D02*
X169061966Y-101095000D01*
X150491000Y-103041000D02*
X167115966Y-103041000D01*
D50*
%TO.N,Net-(U1-SPIQ)*%
X143470000Y-96800000D02*
X145502500Y-96800000D01*
X141970000Y-98300000D02*
X143470000Y-96800000D01*
X140750000Y-98300000D02*
X141970000Y-98300000D01*
%TO.N,Net-(U1-SPICLK)*%
X149420000Y-97720000D02*
X153540000Y-93600000D01*
X142400000Y-98700000D02*
X143380000Y-97720000D01*
X153540000Y-93600000D02*
X154802500Y-93600000D01*
X143380000Y-97720000D02*
X149420000Y-97720000D01*
X140750000Y-98700000D02*
X142400000Y-98700000D01*
D51*
%TO.N,SPICLK*%
X162600000Y-96520000D02*
X162600000Y-99390000D01*
X158647500Y-93600000D02*
X158812500Y-93765000D01*
X163035000Y-99825000D02*
X164565000Y-99825000D01*
X155997500Y-93600000D02*
X158647500Y-93600000D01*
X162600000Y-99390000D02*
X163035000Y-99825000D01*
X159845000Y-93765000D02*
X162600000Y-96520000D01*
X158812500Y-93765000D02*
X159845000Y-93765000D01*
D50*
%TO.N,SPIWP*%
X162365000Y-93765000D02*
X165987500Y-93765000D01*
D51*
X168540001Y-99825000D02*
X169515000Y-99825000D01*
D50*
X159400000Y-90800000D02*
X162365000Y-93765000D01*
X153680000Y-98900000D02*
X146600000Y-98900000D01*
D51*
X165987500Y-93765000D02*
X167445000Y-93765000D01*
X168190000Y-94550000D02*
X168190000Y-99474999D01*
X167445000Y-93765000D02*
X168210000Y-94530000D01*
D50*
X154210000Y-99430000D02*
X153680000Y-98900000D01*
X157820000Y-90800000D02*
X159400000Y-90800000D01*
D51*
X168210000Y-94530000D02*
X168190000Y-94550000D01*
X168190000Y-99474999D02*
X168540001Y-99825000D01*
D50*
X157140000Y-91480000D02*
X157820000Y-90800000D01*
%TO.N,Net-(U1-SPIWP)*%
X140750000Y-99500000D02*
X143170000Y-99500000D01*
X143170000Y-99500000D02*
X143770000Y-98900000D01*
X143770000Y-98900000D02*
X145405000Y-98900000D01*
%TO.N,Net-(U1-SPIHD)*%
X153950000Y-96760000D02*
X154805000Y-95905000D01*
X154805000Y-95905000D02*
X154805000Y-94900000D01*
X150680000Y-99900000D02*
X140750000Y-99900000D01*
D51*
%TO.N,SPIHD*%
X161750000Y-100100000D02*
X162745000Y-101095000D01*
X159735000Y-95035000D02*
X161750000Y-97050000D01*
X158812500Y-95035000D02*
X159735000Y-95035000D01*
X156000000Y-94900000D02*
X158677500Y-94900000D01*
X161750000Y-97050000D02*
X161750000Y-100100000D01*
X162745000Y-101095000D02*
X164565000Y-101095000D01*
X158677500Y-94900000D02*
X158812500Y-95035000D01*
D50*
%TO.N,Net-(U1-GPIO0)*%
X128870000Y-96700000D02*
X123270000Y-91100000D01*
X123270000Y-91100000D02*
X118697500Y-91100000D01*
X133850000Y-96700000D02*
X128870000Y-96700000D01*
D52*
%TO.N,Net-(U1-GPIO46)*%
X136300000Y-94250000D02*
X136300000Y-93501744D01*
X138420000Y-91381744D02*
X138420000Y-87360000D01*
X136300000Y-93501744D02*
X138420000Y-91381744D01*
D50*
%TO.N,I2C_SCL*%
X133850000Y-97500000D02*
X117000000Y-97500000D01*
X117000000Y-97500000D02*
X116855700Y-97644300D01*
X116855700Y-97644300D02*
X116564399Y-97644300D01*
%TO.N,I2C_SDA*%
X118400000Y-96597500D02*
X117111200Y-96597500D01*
X123988614Y-97100000D02*
X123486114Y-96597500D01*
X123486114Y-96597500D02*
X118400000Y-96597500D01*
X133850000Y-97100000D02*
X123988614Y-97100000D01*
X117111200Y-96597500D02*
X116564399Y-97144301D01*
%TO.N,SPICS0*%
X143850000Y-98240000D02*
X142990000Y-99100000D01*
X165952880Y-96270380D02*
X165987500Y-96305000D01*
X163610000Y-95050000D02*
X164830380Y-96270380D01*
X164830380Y-96270380D02*
X165952880Y-96270380D01*
X157490000Y-98240000D02*
X143850000Y-98240000D01*
X142990000Y-99100000D02*
X140750000Y-99100000D01*
D52*
%TO.N,USB_D-*%
X137960000Y-106235000D02*
X138685000Y-105510000D01*
X138685000Y-101165000D02*
X138700000Y-101150000D01*
D50*
X137960000Y-106597500D02*
X137960000Y-106235000D01*
D52*
X138685000Y-105510000D02*
X138685000Y-101165000D01*
%TO.N,USB_D+*%
X139135000Y-105510000D02*
X139135000Y-101647420D01*
X139860000Y-106235000D02*
X139135000Y-105510000D01*
X139124000Y-101174000D02*
X139100000Y-101150000D01*
D50*
X139860000Y-106597500D02*
X139860000Y-106235000D01*
D52*
X139135000Y-101647420D02*
X139124000Y-101636420D01*
X139124000Y-101636420D02*
X139124000Y-101174000D01*
D50*
%TO.N,SPICS1*%
X166670000Y-105210000D02*
X169515000Y-102365000D01*
X139900000Y-102660000D02*
X142450000Y-105210000D01*
X139900000Y-101150000D02*
X139900000Y-102660000D01*
X142450000Y-105210000D02*
X166670000Y-105210000D01*
%TO.N,/PSU/usbc_d-*%
X138309000Y-109221500D02*
X137960000Y-108872500D01*
X138309000Y-109575968D02*
X138309000Y-109221500D01*
X139549999Y-110816967D02*
X138309000Y-109575968D01*
%TO.N,/PSU/usbc_d+*%
X140000000Y-109012500D02*
X139860000Y-108872500D01*
X140000000Y-116415000D02*
X140000000Y-109012500D01*
%TO.N,/PSU/usbc_d-*%
X139549999Y-116365001D02*
X139549999Y-110816967D01*
D48*
%TO.N,VBUS*%
X137282000Y-119380000D02*
X138736000Y-117926000D01*
X134530000Y-119380000D02*
X137282000Y-119380000D01*
X131540000Y-116390000D02*
X134530000Y-119380000D01*
%TD*%
M02*
