%TF.GenerationSoftware,KiCad,Pcbnew,9.0.2*%
%TF.CreationDate,2025-08-15T11:16:16-05:00*%
%TF.ProjectId,ESP_32_sens,4553505f-3332-45f7-9365-6e732e6b6963,rev?*%
%TF.SameCoordinates,Original*%
%TF.FileFunction,Copper,L3,Inr*%
%TF.FilePolarity,Positive*%
%FSLAX46Y46*%
G04 Gerber Fmt 4.6, Leading zero omitted, Abs format (unit mm)*
G04 Created by KiCad (PCBNEW 9.0.2) date 2025-08-15 11:16:16*
%MOMM*%
%LPD*%
G01*
G04 APERTURE LIST*
G04 Aperture macros list*
%AMRoundRect*
0 Rectangle with rounded corners*
0 $1 Rounding radius*
0 $2 $3 $4 $5 $6 $7 $8 $9 X,Y pos of 4 corners*
0 Add a 4 corners polygon primitive as box body*
4,1,4,$2,$3,$4,$5,$6,$7,$8,$9,$2,$3,0*
0 Add four circle primitives for the rounded corners*
1,1,$1+$1,$2,$3*
1,1,$1+$1,$4,$5*
1,1,$1+$1,$6,$7*
1,1,$1+$1,$8,$9*
0 Add four rect primitives between the rounded corners*
20,1,$1+$1,$2,$3,$4,$5,0*
20,1,$1+$1,$4,$5,$6,$7,0*
20,1,$1+$1,$6,$7,$8,$9,0*
20,1,$1+$1,$8,$9,$2,$3,0*%
G04 Aperture macros list end*
%TA.AperFunction,ComponentPad*%
%ADD10C,2.000000*%
%TD*%
%TA.AperFunction,ComponentPad*%
%ADD11RoundRect,0.250000X0.335000X0.685000X-0.335000X0.685000X-0.335000X-0.685000X0.335000X-0.685000X0*%
%TD*%
%TA.AperFunction,ComponentPad*%
%ADD12O,1.170000X1.870000*%
%TD*%
%TA.AperFunction,HeatsinkPad*%
%ADD13O,1.000000X2.100000*%
%TD*%
%TA.AperFunction,HeatsinkPad*%
%ADD14O,1.000000X1.800000*%
%TD*%
%TA.AperFunction,ViaPad*%
%ADD15C,0.600000*%
%TD*%
G04 APERTURE END LIST*
D10*
%TO.N,/MCU/Chip_pu*%
%TO.C,SW1*%
X118650000Y-79250000D03*
X118650000Y-85750000D03*
%TO.N,GND*%
X114150000Y-79250000D03*
X114150000Y-85750000D03*
%TD*%
D11*
%TO.N,+3.3V*%
%TO.C,J4*%
X148660000Y-84150000D03*
D12*
%TO.N,UART_TX*%
X147160000Y-84150000D03*
%TO.N,UART_RX*%
X145660000Y-84150000D03*
%TO.N,GND*%
X144160000Y-84150000D03*
%TD*%
D13*
%TO.N,unconnected-(J3-SHIELD-PadS1)*%
%TO.C,J3*%
X134930000Y-117015000D03*
D14*
%TO.N,unconnected-(J3-SHIELD-PadS1)_2*%
X134930000Y-121215000D03*
D13*
%TO.N,unconnected-(J3-SHIELD-PadS1)_1*%
X143570000Y-117015000D03*
D14*
%TO.N,unconnected-(J3-SHIELD-PadS1)_3*%
X143570000Y-121215000D03*
%TD*%
D15*
%TO.N,+3.3VA*%
X112820000Y-108570000D03*
X113530000Y-102330000D03*
X122030000Y-92330000D03*
X110230000Y-101820000D03*
X124270000Y-87110000D03*
%TO.N,GND*%
X138100000Y-99000000D03*
X118830000Y-108870000D03*
X105790000Y-102990000D03*
X133810000Y-90170000D03*
X112310000Y-87590000D03*
X132020000Y-89320000D03*
X138800000Y-98300000D03*
X138800000Y-97100000D03*
X137300000Y-98300000D03*
X136500000Y-98300000D03*
X168100000Y-91980000D03*
X136500000Y-97100000D03*
X133570000Y-115300000D03*
X116440000Y-92130000D03*
X136500000Y-97700000D03*
X102140000Y-107550000D03*
X136500000Y-98900000D03*
X171920000Y-98020000D03*
X137300000Y-97100000D03*
X135800000Y-98300000D03*
X119850000Y-121360000D03*
X138100000Y-97100000D03*
X115440000Y-105750000D03*
X136870000Y-83300000D03*
X105250000Y-115590000D03*
X141180000Y-107750000D03*
X138100000Y-98300000D03*
X117160000Y-113050000D03*
X136500000Y-96500000D03*
X141690000Y-83920000D03*
X135800000Y-97100000D03*
X138100000Y-96500000D03*
X132860000Y-85450000D03*
X143290000Y-112975000D03*
X112210000Y-101620000D03*
X124140000Y-104700000D03*
X115460000Y-95480000D03*
X134410000Y-112340000D03*
X138100000Y-97700000D03*
X126170000Y-87750000D03*
X129130000Y-120920000D03*
X117330000Y-121360000D03*
%TO.N,+3.3V*%
X111890000Y-111460000D03*
X119930000Y-94410000D03*
X115390000Y-107330000D03*
X121540000Y-87820000D03*
X126760000Y-86670000D03*
X122280000Y-98460000D03*
X121880000Y-95660000D03*
X124704669Y-85614669D03*
%TO.N,VDD_SPI*%
X157220000Y-101580000D03*
X154140000Y-104170000D03*
%TO.N,/PSU/BUCK_FB*%
X120900000Y-114950000D03*
X110110000Y-108930000D03*
%TO.N,SPIQ*%
X149140000Y-101690000D03*
X148320000Y-96510000D03*
%TO.N,SPIWP*%
X157140000Y-91480000D03*
X154210000Y-99430000D03*
%TO.N,Net-(U1-SPIHD)*%
X150680000Y-99900000D03*
X153950000Y-96760000D03*
%TO.N,SPICS0*%
X157490000Y-98240000D03*
X163610000Y-95050000D03*
%TD*%
M02*
