%TF.GenerationSoftware,KiCad,Pcbnew,9.0.2*%
%TF.CreationDate,2025-08-14T15:26:00-05:00*%
%TF.ProjectId,ESP_32_sens,4553505f-3332-45f7-9365-6e732e6b6963,rev?*%
%TF.SameCoordinates,Original*%
%TF.FileFunction,Legend,Bot*%
%TF.FilePolarity,Positive*%
%FSLAX46Y46*%
G04 Gerber Fmt 4.6, Leading zero omitted, Abs format (unit mm)*
G04 Created by KiCad (PCBNEW 9.0.2) date 2025-08-14 15:26:00*
%MOMM*%
%LPD*%
G01*
G04 APERTURE LIST*
%ADD10C,0.153000*%
G04 APERTURE END LIST*
D10*
X168427914Y-75225965D02*
X168761247Y-75225965D01*
X168761247Y-75749775D02*
X168761247Y-74749775D01*
X168761247Y-74749775D02*
X168285057Y-74749775D01*
X167761247Y-75749775D02*
X167856485Y-75702156D01*
X167856485Y-75702156D02*
X167904104Y-75606917D01*
X167904104Y-75606917D02*
X167904104Y-74749775D01*
X166951723Y-75749775D02*
X166951723Y-75225965D01*
X166951723Y-75225965D02*
X166999342Y-75130727D01*
X166999342Y-75130727D02*
X167094580Y-75083108D01*
X167094580Y-75083108D02*
X167285056Y-75083108D01*
X167285056Y-75083108D02*
X167380294Y-75130727D01*
X166951723Y-75702156D02*
X167046961Y-75749775D01*
X167046961Y-75749775D02*
X167285056Y-75749775D01*
X167285056Y-75749775D02*
X167380294Y-75702156D01*
X167380294Y-75702156D02*
X167427913Y-75606917D01*
X167427913Y-75606917D02*
X167427913Y-75511679D01*
X167427913Y-75511679D02*
X167380294Y-75416441D01*
X167380294Y-75416441D02*
X167285056Y-75368822D01*
X167285056Y-75368822D02*
X167046961Y-75368822D01*
X167046961Y-75368822D02*
X166951723Y-75321203D01*
X166618389Y-75083108D02*
X166237437Y-75083108D01*
X166475532Y-74749775D02*
X166475532Y-75606917D01*
X166475532Y-75606917D02*
X166427913Y-75702156D01*
X166427913Y-75702156D02*
X166332675Y-75749775D01*
X166332675Y-75749775D02*
X166237437Y-75749775D01*
X165904103Y-75749775D02*
X165904103Y-75083108D01*
X165904103Y-75273584D02*
X165856484Y-75178346D01*
X165856484Y-75178346D02*
X165808865Y-75130727D01*
X165808865Y-75130727D02*
X165713627Y-75083108D01*
X165713627Y-75083108D02*
X165618389Y-75083108D01*
X165285055Y-75749775D02*
X165285055Y-75083108D01*
X165285055Y-74749775D02*
X165332674Y-74797394D01*
X165332674Y-74797394D02*
X165285055Y-74845013D01*
X165285055Y-74845013D02*
X165237436Y-74797394D01*
X165237436Y-74797394D02*
X165285055Y-74749775D01*
X165285055Y-74749775D02*
X165285055Y-74845013D01*
X164808865Y-75749775D02*
X164808865Y-75083108D01*
X164808865Y-75178346D02*
X164761246Y-75130727D01*
X164761246Y-75130727D02*
X164666008Y-75083108D01*
X164666008Y-75083108D02*
X164523151Y-75083108D01*
X164523151Y-75083108D02*
X164427913Y-75130727D01*
X164427913Y-75130727D02*
X164380294Y-75225965D01*
X164380294Y-75225965D02*
X164380294Y-75749775D01*
X164380294Y-75225965D02*
X164332675Y-75130727D01*
X164332675Y-75130727D02*
X164237437Y-75083108D01*
X164237437Y-75083108D02*
X164094580Y-75083108D01*
X164094580Y-75083108D02*
X163999341Y-75130727D01*
X163999341Y-75130727D02*
X163951722Y-75225965D01*
X163951722Y-75225965D02*
X163951722Y-75749775D01*
X162713627Y-75749775D02*
X162713627Y-74749775D01*
X162713627Y-74749775D02*
X162475532Y-74749775D01*
X162475532Y-74749775D02*
X162332675Y-74797394D01*
X162332675Y-74797394D02*
X162237437Y-74892632D01*
X162237437Y-74892632D02*
X162189818Y-74987870D01*
X162189818Y-74987870D02*
X162142199Y-75178346D01*
X162142199Y-75178346D02*
X162142199Y-75321203D01*
X162142199Y-75321203D02*
X162189818Y-75511679D01*
X162189818Y-75511679D02*
X162237437Y-75606917D01*
X162237437Y-75606917D02*
X162332675Y-75702156D01*
X162332675Y-75702156D02*
X162475532Y-75749775D01*
X162475532Y-75749775D02*
X162713627Y-75749775D01*
X161713627Y-75749775D02*
X161713627Y-75083108D01*
X161713627Y-75273584D02*
X161666008Y-75178346D01*
X161666008Y-75178346D02*
X161618389Y-75130727D01*
X161618389Y-75130727D02*
X161523151Y-75083108D01*
X161523151Y-75083108D02*
X161427913Y-75083108D01*
X160713627Y-75702156D02*
X160808865Y-75749775D01*
X160808865Y-75749775D02*
X160999341Y-75749775D01*
X160999341Y-75749775D02*
X161094579Y-75702156D01*
X161094579Y-75702156D02*
X161142198Y-75606917D01*
X161142198Y-75606917D02*
X161142198Y-75225965D01*
X161142198Y-75225965D02*
X161094579Y-75130727D01*
X161094579Y-75130727D02*
X160999341Y-75083108D01*
X160999341Y-75083108D02*
X160808865Y-75083108D01*
X160808865Y-75083108D02*
X160713627Y-75130727D01*
X160713627Y-75130727D02*
X160666008Y-75225965D01*
X160666008Y-75225965D02*
X160666008Y-75321203D01*
X160666008Y-75321203D02*
X161142198Y-75416441D01*
X160285055Y-75702156D02*
X160189817Y-75749775D01*
X160189817Y-75749775D02*
X159999341Y-75749775D01*
X159999341Y-75749775D02*
X159904103Y-75702156D01*
X159904103Y-75702156D02*
X159856484Y-75606917D01*
X159856484Y-75606917D02*
X159856484Y-75559298D01*
X159856484Y-75559298D02*
X159904103Y-75464060D01*
X159904103Y-75464060D02*
X159999341Y-75416441D01*
X159999341Y-75416441D02*
X160142198Y-75416441D01*
X160142198Y-75416441D02*
X160237436Y-75368822D01*
X160237436Y-75368822D02*
X160285055Y-75273584D01*
X160285055Y-75273584D02*
X160285055Y-75225965D01*
X160285055Y-75225965D02*
X160237436Y-75130727D01*
X160237436Y-75130727D02*
X160142198Y-75083108D01*
X160142198Y-75083108D02*
X159999341Y-75083108D01*
X159999341Y-75083108D02*
X159904103Y-75130727D01*
X159427912Y-75749775D02*
X159427912Y-74749775D01*
X158999341Y-75749775D02*
X158999341Y-75225965D01*
X158999341Y-75225965D02*
X159046960Y-75130727D01*
X159046960Y-75130727D02*
X159142198Y-75083108D01*
X159142198Y-75083108D02*
X159285055Y-75083108D01*
X159285055Y-75083108D02*
X159380293Y-75130727D01*
X159380293Y-75130727D02*
X159427912Y-75178346D01*
X158094579Y-75749775D02*
X158094579Y-75225965D01*
X158094579Y-75225965D02*
X158142198Y-75130727D01*
X158142198Y-75130727D02*
X158237436Y-75083108D01*
X158237436Y-75083108D02*
X158427912Y-75083108D01*
X158427912Y-75083108D02*
X158523150Y-75130727D01*
X158094579Y-75702156D02*
X158189817Y-75749775D01*
X158189817Y-75749775D02*
X158427912Y-75749775D01*
X158427912Y-75749775D02*
X158523150Y-75702156D01*
X158523150Y-75702156D02*
X158570769Y-75606917D01*
X158570769Y-75606917D02*
X158570769Y-75511679D01*
X158570769Y-75511679D02*
X158523150Y-75416441D01*
X158523150Y-75416441D02*
X158427912Y-75368822D01*
X158427912Y-75368822D02*
X158189817Y-75368822D01*
X158189817Y-75368822D02*
X158094579Y-75321203D01*
X157618388Y-75083108D02*
X157618388Y-75940251D01*
X157618388Y-75940251D02*
X157666007Y-76035489D01*
X157666007Y-76035489D02*
X157761245Y-76083108D01*
X157761245Y-76083108D02*
X157808864Y-76083108D01*
X157618388Y-74749775D02*
X157666007Y-74797394D01*
X157666007Y-74797394D02*
X157618388Y-74845013D01*
X157618388Y-74845013D02*
X157570769Y-74797394D01*
X157570769Y-74797394D02*
X157618388Y-74749775D01*
X157618388Y-74749775D02*
X157618388Y-74845013D01*
X168808866Y-77074004D02*
X168332676Y-77074004D01*
X168904104Y-77359719D02*
X168570771Y-76359719D01*
X168570771Y-76359719D02*
X168237438Y-77359719D01*
X167904104Y-77359719D02*
X167904104Y-76359719D01*
X167904104Y-76359719D02*
X167570771Y-77074004D01*
X167570771Y-77074004D02*
X167237438Y-76359719D01*
X167237438Y-76359719D02*
X167237438Y-77359719D01*
X166761247Y-77359719D02*
X166761247Y-76359719D01*
X166761247Y-76359719D02*
X166189819Y-77359719D01*
X166189819Y-77359719D02*
X166189819Y-76359719D01*
X165856485Y-76359719D02*
X165285057Y-76359719D01*
X165570771Y-77359719D02*
X165570771Y-76359719D01*
X164475533Y-77359719D02*
X164951723Y-77359719D01*
X164951723Y-77359719D02*
X164951723Y-76359719D01*
X163380294Y-76978766D02*
X162618390Y-76978766D01*
X161427913Y-77312100D02*
X161285056Y-77359719D01*
X161285056Y-77359719D02*
X161046961Y-77359719D01*
X161046961Y-77359719D02*
X160951723Y-77312100D01*
X160951723Y-77312100D02*
X160904104Y-77264480D01*
X160904104Y-77264480D02*
X160856485Y-77169242D01*
X160856485Y-77169242D02*
X160856485Y-77074004D01*
X160856485Y-77074004D02*
X160904104Y-76978766D01*
X160904104Y-76978766D02*
X160951723Y-76931147D01*
X160951723Y-76931147D02*
X161046961Y-76883528D01*
X161046961Y-76883528D02*
X161237437Y-76835909D01*
X161237437Y-76835909D02*
X161332675Y-76788290D01*
X161332675Y-76788290D02*
X161380294Y-76740671D01*
X161380294Y-76740671D02*
X161427913Y-76645433D01*
X161427913Y-76645433D02*
X161427913Y-76550195D01*
X161427913Y-76550195D02*
X161380294Y-76454957D01*
X161380294Y-76454957D02*
X161332675Y-76407338D01*
X161332675Y-76407338D02*
X161237437Y-76359719D01*
X161237437Y-76359719D02*
X160999342Y-76359719D01*
X160999342Y-76359719D02*
X160856485Y-76407338D01*
X159999342Y-77312100D02*
X160094580Y-77359719D01*
X160094580Y-77359719D02*
X160285056Y-77359719D01*
X160285056Y-77359719D02*
X160380294Y-77312100D01*
X160380294Y-77312100D02*
X160427913Y-77264480D01*
X160427913Y-77264480D02*
X160475532Y-77169242D01*
X160475532Y-77169242D02*
X160475532Y-76883528D01*
X160475532Y-76883528D02*
X160427913Y-76788290D01*
X160427913Y-76788290D02*
X160380294Y-76740671D01*
X160380294Y-76740671D02*
X160285056Y-76693052D01*
X160285056Y-76693052D02*
X160094580Y-76693052D01*
X160094580Y-76693052D02*
X159999342Y-76740671D01*
X159142199Y-77359719D02*
X159142199Y-76835909D01*
X159142199Y-76835909D02*
X159189818Y-76740671D01*
X159189818Y-76740671D02*
X159285056Y-76693052D01*
X159285056Y-76693052D02*
X159475532Y-76693052D01*
X159475532Y-76693052D02*
X159570770Y-76740671D01*
X159142199Y-77312100D02*
X159237437Y-77359719D01*
X159237437Y-77359719D02*
X159475532Y-77359719D01*
X159475532Y-77359719D02*
X159570770Y-77312100D01*
X159570770Y-77312100D02*
X159618389Y-77216861D01*
X159618389Y-77216861D02*
X159618389Y-77121623D01*
X159618389Y-77121623D02*
X159570770Y-77026385D01*
X159570770Y-77026385D02*
X159475532Y-76978766D01*
X159475532Y-76978766D02*
X159237437Y-76978766D01*
X159237437Y-76978766D02*
X159142199Y-76931147D01*
X158666008Y-76693052D02*
X158666008Y-77359719D01*
X158666008Y-76788290D02*
X158618389Y-76740671D01*
X158618389Y-76740671D02*
X158523151Y-76693052D01*
X158523151Y-76693052D02*
X158380294Y-76693052D01*
X158380294Y-76693052D02*
X158285056Y-76740671D01*
X158285056Y-76740671D02*
X158237437Y-76835909D01*
X158237437Y-76835909D02*
X158237437Y-77359719D01*
X156999341Y-77359719D02*
X156999341Y-76359719D01*
X156999341Y-76359719D02*
X156666008Y-77074004D01*
X156666008Y-77074004D02*
X156332675Y-76359719D01*
X156332675Y-76359719D02*
X156332675Y-77359719D01*
X155713627Y-77359719D02*
X155808865Y-77312100D01*
X155808865Y-77312100D02*
X155856484Y-77264480D01*
X155856484Y-77264480D02*
X155904103Y-77169242D01*
X155904103Y-77169242D02*
X155904103Y-76883528D01*
X155904103Y-76883528D02*
X155856484Y-76788290D01*
X155856484Y-76788290D02*
X155808865Y-76740671D01*
X155808865Y-76740671D02*
X155713627Y-76693052D01*
X155713627Y-76693052D02*
X155570770Y-76693052D01*
X155570770Y-76693052D02*
X155475532Y-76740671D01*
X155475532Y-76740671D02*
X155427913Y-76788290D01*
X155427913Y-76788290D02*
X155380294Y-76883528D01*
X155380294Y-76883528D02*
X155380294Y-77169242D01*
X155380294Y-77169242D02*
X155427913Y-77264480D01*
X155427913Y-77264480D02*
X155475532Y-77312100D01*
X155475532Y-77312100D02*
X155570770Y-77359719D01*
X155570770Y-77359719D02*
X155713627Y-77359719D01*
X155094579Y-76693052D02*
X154713627Y-76693052D01*
X154951722Y-76359719D02*
X154951722Y-77216861D01*
X154951722Y-77216861D02*
X154904103Y-77312100D01*
X154904103Y-77312100D02*
X154808865Y-77359719D01*
X154808865Y-77359719D02*
X154713627Y-77359719D01*
X154380293Y-77359719D02*
X154380293Y-76693052D01*
X154380293Y-76359719D02*
X154427912Y-76407338D01*
X154427912Y-76407338D02*
X154380293Y-76454957D01*
X154380293Y-76454957D02*
X154332674Y-76407338D01*
X154332674Y-76407338D02*
X154380293Y-76359719D01*
X154380293Y-76359719D02*
X154380293Y-76454957D01*
X153761246Y-77359719D02*
X153856484Y-77312100D01*
X153856484Y-77312100D02*
X153904103Y-77264480D01*
X153904103Y-77264480D02*
X153951722Y-77169242D01*
X153951722Y-77169242D02*
X153951722Y-76883528D01*
X153951722Y-76883528D02*
X153904103Y-76788290D01*
X153904103Y-76788290D02*
X153856484Y-76740671D01*
X153856484Y-76740671D02*
X153761246Y-76693052D01*
X153761246Y-76693052D02*
X153618389Y-76693052D01*
X153618389Y-76693052D02*
X153523151Y-76740671D01*
X153523151Y-76740671D02*
X153475532Y-76788290D01*
X153475532Y-76788290D02*
X153427913Y-76883528D01*
X153427913Y-76883528D02*
X153427913Y-77169242D01*
X153427913Y-77169242D02*
X153475532Y-77264480D01*
X153475532Y-77264480D02*
X153523151Y-77312100D01*
X153523151Y-77312100D02*
X153618389Y-77359719D01*
X153618389Y-77359719D02*
X153761246Y-77359719D01*
X152999341Y-76693052D02*
X152999341Y-77359719D01*
X152999341Y-76788290D02*
X152951722Y-76740671D01*
X152951722Y-76740671D02*
X152856484Y-76693052D01*
X152856484Y-76693052D02*
X152713627Y-76693052D01*
X152713627Y-76693052D02*
X152618389Y-76740671D01*
X152618389Y-76740671D02*
X152570770Y-76835909D01*
X152570770Y-76835909D02*
X152570770Y-77359719D01*
X150761246Y-77264480D02*
X150808865Y-77312100D01*
X150808865Y-77312100D02*
X150951722Y-77359719D01*
X150951722Y-77359719D02*
X151046960Y-77359719D01*
X151046960Y-77359719D02*
X151189817Y-77312100D01*
X151189817Y-77312100D02*
X151285055Y-77216861D01*
X151285055Y-77216861D02*
X151332674Y-77121623D01*
X151332674Y-77121623D02*
X151380293Y-76931147D01*
X151380293Y-76931147D02*
X151380293Y-76788290D01*
X151380293Y-76788290D02*
X151332674Y-76597814D01*
X151332674Y-76597814D02*
X151285055Y-76502576D01*
X151285055Y-76502576D02*
X151189817Y-76407338D01*
X151189817Y-76407338D02*
X151046960Y-76359719D01*
X151046960Y-76359719D02*
X150951722Y-76359719D01*
X150951722Y-76359719D02*
X150808865Y-76407338D01*
X150808865Y-76407338D02*
X150761246Y-76454957D01*
X150189817Y-77359719D02*
X150285055Y-77312100D01*
X150285055Y-77312100D02*
X150332674Y-77264480D01*
X150332674Y-77264480D02*
X150380293Y-77169242D01*
X150380293Y-77169242D02*
X150380293Y-76883528D01*
X150380293Y-76883528D02*
X150332674Y-76788290D01*
X150332674Y-76788290D02*
X150285055Y-76740671D01*
X150285055Y-76740671D02*
X150189817Y-76693052D01*
X150189817Y-76693052D02*
X150046960Y-76693052D01*
X150046960Y-76693052D02*
X149951722Y-76740671D01*
X149951722Y-76740671D02*
X149904103Y-76788290D01*
X149904103Y-76788290D02*
X149856484Y-76883528D01*
X149856484Y-76883528D02*
X149856484Y-77169242D01*
X149856484Y-77169242D02*
X149904103Y-77264480D01*
X149904103Y-77264480D02*
X149951722Y-77312100D01*
X149951722Y-77312100D02*
X150046960Y-77359719D01*
X150046960Y-77359719D02*
X150189817Y-77359719D01*
X149427912Y-76693052D02*
X149427912Y-77359719D01*
X149427912Y-76788290D02*
X149380293Y-76740671D01*
X149380293Y-76740671D02*
X149285055Y-76693052D01*
X149285055Y-76693052D02*
X149142198Y-76693052D01*
X149142198Y-76693052D02*
X149046960Y-76740671D01*
X149046960Y-76740671D02*
X148999341Y-76835909D01*
X148999341Y-76835909D02*
X148999341Y-77359719D01*
X148666007Y-76693052D02*
X148285055Y-76693052D01*
X148523150Y-76359719D02*
X148523150Y-77216861D01*
X148523150Y-77216861D02*
X148475531Y-77312100D01*
X148475531Y-77312100D02*
X148380293Y-77359719D01*
X148380293Y-77359719D02*
X148285055Y-77359719D01*
X147951721Y-77359719D02*
X147951721Y-76693052D01*
X147951721Y-76883528D02*
X147904102Y-76788290D01*
X147904102Y-76788290D02*
X147856483Y-76740671D01*
X147856483Y-76740671D02*
X147761245Y-76693052D01*
X147761245Y-76693052D02*
X147666007Y-76693052D01*
X147189816Y-77359719D02*
X147285054Y-77312100D01*
X147285054Y-77312100D02*
X147332673Y-77264480D01*
X147332673Y-77264480D02*
X147380292Y-77169242D01*
X147380292Y-77169242D02*
X147380292Y-76883528D01*
X147380292Y-76883528D02*
X147332673Y-76788290D01*
X147332673Y-76788290D02*
X147285054Y-76740671D01*
X147285054Y-76740671D02*
X147189816Y-76693052D01*
X147189816Y-76693052D02*
X147046959Y-76693052D01*
X147046959Y-76693052D02*
X146951721Y-76740671D01*
X146951721Y-76740671D02*
X146904102Y-76788290D01*
X146904102Y-76788290D02*
X146856483Y-76883528D01*
X146856483Y-76883528D02*
X146856483Y-77169242D01*
X146856483Y-77169242D02*
X146904102Y-77264480D01*
X146904102Y-77264480D02*
X146951721Y-77312100D01*
X146951721Y-77312100D02*
X147046959Y-77359719D01*
X147046959Y-77359719D02*
X147189816Y-77359719D01*
X146285054Y-77359719D02*
X146380292Y-77312100D01*
X146380292Y-77312100D02*
X146427911Y-77216861D01*
X146427911Y-77216861D02*
X146427911Y-76359719D01*
X145761244Y-77359719D02*
X145856482Y-77312100D01*
X145856482Y-77312100D02*
X145904101Y-77216861D01*
X145904101Y-77216861D02*
X145904101Y-76359719D01*
X144999339Y-77312100D02*
X145094577Y-77359719D01*
X145094577Y-77359719D02*
X145285053Y-77359719D01*
X145285053Y-77359719D02*
X145380291Y-77312100D01*
X145380291Y-77312100D02*
X145427910Y-77216861D01*
X145427910Y-77216861D02*
X145427910Y-76835909D01*
X145427910Y-76835909D02*
X145380291Y-76740671D01*
X145380291Y-76740671D02*
X145285053Y-76693052D01*
X145285053Y-76693052D02*
X145094577Y-76693052D01*
X145094577Y-76693052D02*
X144999339Y-76740671D01*
X144999339Y-76740671D02*
X144951720Y-76835909D01*
X144951720Y-76835909D02*
X144951720Y-76931147D01*
X144951720Y-76931147D02*
X145427910Y-77026385D01*
X144523148Y-77359719D02*
X144523148Y-76693052D01*
X144523148Y-76883528D02*
X144475529Y-76788290D01*
X144475529Y-76788290D02*
X144427910Y-76740671D01*
X144427910Y-76740671D02*
X144332672Y-76693052D01*
X144332672Y-76693052D02*
X144237434Y-76693052D01*
X143285052Y-76359719D02*
X142951719Y-77359719D01*
X142951719Y-77359719D02*
X142618386Y-76359719D01*
X141761243Y-77359719D02*
X142332671Y-77359719D01*
X142046957Y-77359719D02*
X142046957Y-76359719D01*
X142046957Y-76359719D02*
X142142195Y-76502576D01*
X142142195Y-76502576D02*
X142237433Y-76597814D01*
X142237433Y-76597814D02*
X142332671Y-76645433D01*
X168618390Y-78398234D02*
X168713628Y-78350615D01*
X168713628Y-78350615D02*
X168761247Y-78302996D01*
X168761247Y-78302996D02*
X168808866Y-78207758D01*
X168808866Y-78207758D02*
X168808866Y-78160139D01*
X168808866Y-78160139D02*
X168761247Y-78064901D01*
X168761247Y-78064901D02*
X168713628Y-78017282D01*
X168713628Y-78017282D02*
X168618390Y-77969663D01*
X168618390Y-77969663D02*
X168427914Y-77969663D01*
X168427914Y-77969663D02*
X168332676Y-78017282D01*
X168332676Y-78017282D02*
X168285057Y-78064901D01*
X168285057Y-78064901D02*
X168237438Y-78160139D01*
X168237438Y-78160139D02*
X168237438Y-78207758D01*
X168237438Y-78207758D02*
X168285057Y-78302996D01*
X168285057Y-78302996D02*
X168332676Y-78350615D01*
X168332676Y-78350615D02*
X168427914Y-78398234D01*
X168427914Y-78398234D02*
X168618390Y-78398234D01*
X168618390Y-78398234D02*
X168713628Y-78445853D01*
X168713628Y-78445853D02*
X168761247Y-78493472D01*
X168761247Y-78493472D02*
X168808866Y-78588710D01*
X168808866Y-78588710D02*
X168808866Y-78779186D01*
X168808866Y-78779186D02*
X168761247Y-78874424D01*
X168761247Y-78874424D02*
X168713628Y-78922044D01*
X168713628Y-78922044D02*
X168618390Y-78969663D01*
X168618390Y-78969663D02*
X168427914Y-78969663D01*
X168427914Y-78969663D02*
X168332676Y-78922044D01*
X168332676Y-78922044D02*
X168285057Y-78874424D01*
X168285057Y-78874424D02*
X168237438Y-78779186D01*
X168237438Y-78779186D02*
X168237438Y-78588710D01*
X168237438Y-78588710D02*
X168285057Y-78493472D01*
X168285057Y-78493472D02*
X168332676Y-78445853D01*
X168332676Y-78445853D02*
X168427914Y-78398234D01*
X167094581Y-77922044D02*
X167951723Y-79207758D01*
X166237438Y-78969663D02*
X166808866Y-78969663D01*
X166523152Y-78969663D02*
X166523152Y-77969663D01*
X166523152Y-77969663D02*
X166618390Y-78112520D01*
X166618390Y-78112520D02*
X166713628Y-78207758D01*
X166713628Y-78207758D02*
X166808866Y-78255377D01*
X165380295Y-78302996D02*
X165380295Y-78969663D01*
X165618390Y-77922044D02*
X165856485Y-78636329D01*
X165856485Y-78636329D02*
X165237438Y-78636329D01*
X164142200Y-77922044D02*
X164999342Y-79207758D01*
X163856485Y-78064901D02*
X163808866Y-78017282D01*
X163808866Y-78017282D02*
X163713628Y-77969663D01*
X163713628Y-77969663D02*
X163475533Y-77969663D01*
X163475533Y-77969663D02*
X163380295Y-78017282D01*
X163380295Y-78017282D02*
X163332676Y-78064901D01*
X163332676Y-78064901D02*
X163285057Y-78160139D01*
X163285057Y-78160139D02*
X163285057Y-78255377D01*
X163285057Y-78255377D02*
X163332676Y-78398234D01*
X163332676Y-78398234D02*
X163904104Y-78969663D01*
X163904104Y-78969663D02*
X163285057Y-78969663D01*
X162666009Y-77969663D02*
X162570771Y-77969663D01*
X162570771Y-77969663D02*
X162475533Y-78017282D01*
X162475533Y-78017282D02*
X162427914Y-78064901D01*
X162427914Y-78064901D02*
X162380295Y-78160139D01*
X162380295Y-78160139D02*
X162332676Y-78350615D01*
X162332676Y-78350615D02*
X162332676Y-78588710D01*
X162332676Y-78588710D02*
X162380295Y-78779186D01*
X162380295Y-78779186D02*
X162427914Y-78874424D01*
X162427914Y-78874424D02*
X162475533Y-78922044D01*
X162475533Y-78922044D02*
X162570771Y-78969663D01*
X162570771Y-78969663D02*
X162666009Y-78969663D01*
X162666009Y-78969663D02*
X162761247Y-78922044D01*
X162761247Y-78922044D02*
X162808866Y-78874424D01*
X162808866Y-78874424D02*
X162856485Y-78779186D01*
X162856485Y-78779186D02*
X162904104Y-78588710D01*
X162904104Y-78588710D02*
X162904104Y-78350615D01*
X162904104Y-78350615D02*
X162856485Y-78160139D01*
X162856485Y-78160139D02*
X162808866Y-78064901D01*
X162808866Y-78064901D02*
X162761247Y-78017282D01*
X162761247Y-78017282D02*
X162666009Y-77969663D01*
X161951723Y-78064901D02*
X161904104Y-78017282D01*
X161904104Y-78017282D02*
X161808866Y-77969663D01*
X161808866Y-77969663D02*
X161570771Y-77969663D01*
X161570771Y-77969663D02*
X161475533Y-78017282D01*
X161475533Y-78017282D02*
X161427914Y-78064901D01*
X161427914Y-78064901D02*
X161380295Y-78160139D01*
X161380295Y-78160139D02*
X161380295Y-78255377D01*
X161380295Y-78255377D02*
X161427914Y-78398234D01*
X161427914Y-78398234D02*
X161999342Y-78969663D01*
X161999342Y-78969663D02*
X161380295Y-78969663D01*
X160475533Y-77969663D02*
X160951723Y-77969663D01*
X160951723Y-77969663D02*
X160999342Y-78445853D01*
X160999342Y-78445853D02*
X160951723Y-78398234D01*
X160951723Y-78398234D02*
X160856485Y-78350615D01*
X160856485Y-78350615D02*
X160618390Y-78350615D01*
X160618390Y-78350615D02*
X160523152Y-78398234D01*
X160523152Y-78398234D02*
X160475533Y-78445853D01*
X160475533Y-78445853D02*
X160427914Y-78541091D01*
X160427914Y-78541091D02*
X160427914Y-78779186D01*
X160427914Y-78779186D02*
X160475533Y-78874424D01*
X160475533Y-78874424D02*
X160523152Y-78922044D01*
X160523152Y-78922044D02*
X160618390Y-78969663D01*
X160618390Y-78969663D02*
X160856485Y-78969663D01*
X160856485Y-78969663D02*
X160951723Y-78922044D01*
X160951723Y-78922044D02*
X160999342Y-78874424D01*
M02*
